STARTFONT 2.1
FONT -atari-atari st system-medium-r-normal--6-60-72-72-C-60-ISO10646-1
SIZE 6 72 72
FONTBOUNDINGBOX 6 6 0 -1
STARTPROPERTIES 17
FOUNDRY "Atari"
FAMILY_NAME "Atari ST 6x6 system"
WEIGHT_NAME "Medium"
SLANT "R"
SETWIDTH_NAME "Normal"
PIXEL_SIZE 6
POINT_SIZE 60
RESOLUTION_X 72
RESOLUTION_Y 72
SPACING "C"
AVERAGE_WIDTH 60
CHARSET_REGISTRY "ISO10646"
CHARSET_ENCODING "1"
COPYRIGHT "Public domain"
DEFAULT_CHAR 32
FONT_ASCENT 5
FONT_DESCENT 1
ENDPROPERTIES

CHARS 256

STARTCHAR NULL
ENCODING 0
SWIDTH 720 0
DWIDTH 6 0
BBX 6 6 0 -1
BITMAP
00
00
00
00
00
00
ENDCHAR

STARTCHAR UPWARDS WHITE ARROW
ENCODING 8679
SWIDTH 720 0
DWIDTH 6 0
BBX 6 6 0 -1
BITMAP
20
70
D8
20
20
20
ENDCHAR

STARTCHAR DOWNWARDS WHITE ARROW
ENCODING 8681
SWIDTH 720 0
DWIDTH 6 0
BBX 6 6 0 -1
BITMAP
20
20
20
D8
70
20
ENDCHAR

STARTCHAR RIGHTWARDS WHITE ARROW
ENCODING 8680
SWIDTH 720 0
DWIDTH 6 0
BBX 6 6 0 -1
BITMAP
10
18
EC
18
10
00
ENDCHAR

STARTCHAR LEFTWARDS WHITE ARROW
ENCODING 8678
SWIDTH 720 0
DWIDTH 6 0
BBX 6 6 0 -1
BITMAP
20
60
DC
60
20
00
ENDCHAR

STARTCHAR NEGATIVE DIAGONAL CROSS
ENCODING 129981
SWIDTH 720 0
DWIDTH 6 0
BBX 6 6 0 -1
BITMAP
70
A8
D8
A8
70
00
ENDCHAR

STARTCHAR NEGATIVE DIAGONAL MIDDLE RIGHT TO LOWER CENTRE
ENCODING 129982
SWIDTH 720 0
DWIDTH 6 0
BBX 6 6 0 -1
BITMAP
F8
F0
E0
C8
98
00
ENDCHAR

STARTCHAR NEGATIVE DIAGONAL DIAMOND
ENCODING 129983
SWIDTH 720 0
DWIDTH 6 0
BBX 6 6 0 -1
BITMAP
D8
A8
70
A8
D8
00
ENDCHAR

STARTCHAR CHECK MARK
ENCODING 10003
SWIDTH 720 0
DWIDTH 6 0
BBX 6 6 0 -1
BITMAP
0C
18
B0
E0
40
00
ENDCHAR

STARTCHAR CLOCK FACE THREE OCLOCK
ENCODING 128338
SWIDTH 720 0
DWIDTH 6 0
BBX 6 6 0 -1
BITMAP
78
84
A4
B4
84
78
ENDCHAR

STARTCHAR BELL
ENCODING 128276
SWIDTH 720 0
DWIDTH 6 0
BBX 6 6 0 -1
BITMAP
30
78
78
FC
00
30
ENDCHAR

STARTCHAR EIGHTH NOTE
ENCODING 9834
SWIDTH 720 0
DWIDTH 6 0
BBX 6 6 0 -1
BITMAP
10
18
10
70
F0
60
ENDCHAR

STARTCHAR SYMBOL FOR FORM FEED
ENCODING 9228
SWIDTH 720 0
DWIDTH 6 0
BBX 6 6 0 -1
BITMAP
E0
80
DC
90
18
10
ENDCHAR

STARTCHAR SYMBOL FOR CARRIAGE RETURN
ENCODING 9229
SWIDTH 720 0
DWIDTH 6 0
BBX 6 6 0 -1
BITMAP
E0
80
B8
E8
38
2C
ENDCHAR

STARTCHAR ATARI LOGO LEFT PART
ENCODING 57358
SWIDTH 720 0
DWIDTH 6 0
BBX 6 6 0 -1
BITMAP
14
14
14
34
74
64
ENDCHAR

STARTCHAR ATARI LOGO RIGHT PART
ENCODING 57359
SWIDTH 720 0
DWIDTH 6 0
BBX 6 6 0 -1
BITMAP
40
40
40
60
70
30
ENDCHAR

STARTCHAR SEGMENTED DIGIT ZERO
ENCODING 130032
SWIDTH 720 0
DWIDTH 6 0
BBX 6 6 0 -1
BITMAP
F8
C8
C8
D8
D8
F8
ENDCHAR

STARTCHAR SEGMENTED DIGIT ONE
ENCODING 130033
SWIDTH 720 0
DWIDTH 6 0
BBX 6 6 0 -1
BITMAP
60
20
20
70
70
70
ENDCHAR

STARTCHAR SEGMENTED DIGIT TWO
ENCODING 130034
SWIDTH 720 0
DWIDTH 6 0
BBX 6 6 0 -1
BITMAP
78
08
F8
C0
C0
F8
ENDCHAR

STARTCHAR SEGMENTED DIGIT THREE
ENCODING 130035
SWIDTH 720 0
DWIDTH 6 0
BBX 6 6 0 -1
BITMAP
F0
10
F8
18
18
F8
ENDCHAR

STARTCHAR SEGMENTED DIGIT FOUR
ENCODING 130036
SWIDTH 720 0
DWIDTH 6 0
BBX 6 6 0 -1
BITMAP
C0
C0
C0
D8
F8
18
ENDCHAR

STARTCHAR SEGMENTED DIGIT FIVE
ENCODING 130037
SWIDTH 720 0
DWIDTH 6 0
BBX 6 6 0 -1
BITMAP
F0
80
F8
18
18
F8
ENDCHAR

STARTCHAR SEGMENTED DIGIT SIX
ENCODING 130038
SWIDTH 720 0
DWIDTH 6 0
BBX 6 6 0 -1
BITMAP
C0
C0
F8
98
D8
F8
ENDCHAR

STARTCHAR SEGMENTED DIGIT SEVEN
ENCODING 130039
SWIDTH 720 0
DWIDTH 6 0
BBX 6 6 0 -1
BITMAP
F8
08
38
30
30
30
ENDCHAR

STARTCHAR SEGMENTED DIGIT EIGHT
ENCODING 130040
SWIDTH 720 0
DWIDTH 6 0
BBX 6 6 0 -1
BITMAP
70
50
70
D8
D8
F8
ENDCHAR

STARTCHAR SEGMENTED DIGIT NINE
ENCODING 130041
SWIDTH 720 0
DWIDTH 6 0
BBX 6 6 0 -1
BITMAP
F8
D8
C8
F8
18
18
ENDCHAR

STARTCHAR LATIN SMALL LETTER SCHWA
ENCODING 601
SWIDTH 720 0
DWIDTH 6 0
BBX 6 6 0 -1
BITMAP
00
70
08
F8
70
00
ENDCHAR

STARTCHAR SYMBOL FOR ESCAPE
ENCODING 9243
SWIDTH 720 0
DWIDTH 6 0
BBX 6 6 0 -1
BITMAP
E0
80
DC
90
F0
1C
ENDCHAR

STARTCHAR JR DOBS UPPER LEFT PART
ENCODING 57372
SWIDTH 720 0
DWIDTH 6 0
BBX 6 6 0 -1
BITMAP
1C
3C
60
40
70
58
ENDCHAR

STARTCHAR JR DOBS UPPER RIGHT PART
ENCODING 57373
SWIDTH 720 0
DWIDTH 6 0
BBX 6 6 0 -1
BITMAP
E0
D0
18
08
78
28
ENDCHAR

STARTCHAR JR DOBS LOWER LEFT PART
ENCODING 57374
SWIDTH 720 0
DWIDTH 6 0
BBX 6 6 0 -1
BITMAP
44
2C
28
14
EC
C0
ENDCHAR

STARTCHAR JR DOBS LOWER RIGHT PART
ENCODING 57375
SWIDTH 720 0
DWIDTH 6 0
BBX 6 6 0 -1
BITMAP
08
D0
50
A0
C0
00
ENDCHAR

STARTCHAR SPACE
ENCODING 32
SWIDTH 720 0
DWIDTH 6 0
BBX 6 6 0 -1
BITMAP
00
00
00
00
00
00
ENDCHAR

STARTCHAR EXCLAMATION MARK
ENCODING 33
SWIDTH 720 0
DWIDTH 6 0
BBX 6 6 0 -1
BITMAP
30
30
30
30
00
30
ENDCHAR

STARTCHAR QUOTATION MARK
ENCODING 34
SWIDTH 720 0
DWIDTH 6 0
BBX 6 6 0 -1
BITMAP
D8
D8
90
00
00
00
ENDCHAR

STARTCHAR NUMBER SIGN
ENCODING 35
SWIDTH 720 0
DWIDTH 6 0
BBX 6 6 0 -1
BITMAP
50
F8
50
F8
50
00
ENDCHAR

STARTCHAR DOLLAR SIGN
ENCODING 36
SWIDTH 720 0
DWIDTH 6 0
BBX 6 6 0 -1
BITMAP
78
A0
70
28
F0
20
ENDCHAR

STARTCHAR PERCENT SIGN
ENCODING 37
SWIDTH 720 0
DWIDTH 6 0
BBX 6 6 0 -1
BITMAP
C8
D0
20
58
98
00
ENDCHAR

STARTCHAR AMPERSAND
ENCODING 38
SWIDTH 720 0
DWIDTH 6 0
BBX 6 6 0 -1
BITMAP
60
D0
60
E8
D0
68
ENDCHAR

STARTCHAR APOSTROPHE
ENCODING 39
SWIDTH 720 0
DWIDTH 6 0
BBX 6 6 0 -1
BITMAP
30
30
60
00
00
00
ENDCHAR

STARTCHAR LEFT PARENTHESIS
ENCODING 40
SWIDTH 720 0
DWIDTH 6 0
BBX 6 6 0 -1
BITMAP
30
60
60
60
30
00
ENDCHAR

STARTCHAR RIGHT PARENTHESIS
ENCODING 41
SWIDTH 720 0
DWIDTH 6 0
BBX 6 6 0 -1
BITMAP
60
30
30
30
60
00
ENDCHAR

STARTCHAR ASTERISK
ENCODING 42
SWIDTH 720 0
DWIDTH 6 0
BBX 6 6 0 -1
BITMAP
48
30
78
30
48
00
ENDCHAR

STARTCHAR PLUS SIGN
ENCODING 43
SWIDTH 720 0
DWIDTH 6 0
BBX 6 6 0 -1
BITMAP
20
20
F8
20
20
00
ENDCHAR

STARTCHAR COMMA
ENCODING 44
SWIDTH 720 0
DWIDTH 6 0
BBX 6 6 0 -1
BITMAP
00
00
00
30
30
60
ENDCHAR

STARTCHAR HYPHEN-MINUS
ENCODING 45
SWIDTH 720 0
DWIDTH 6 0
BBX 6 6 0 -1
BITMAP
00
00
78
00
00
00
ENDCHAR

STARTCHAR FULL STOP
ENCODING 46
SWIDTH 720 0
DWIDTH 6 0
BBX 6 6 0 -1
BITMAP
00
00
00
30
30
00
ENDCHAR

STARTCHAR SOLIDUS
ENCODING 47
SWIDTH 720 0
DWIDTH 6 0
BBX 6 6 0 -1
BITMAP
18
30
60
C0
80
00
ENDCHAR

STARTCHAR DIGIT ZERO
ENCODING 48
SWIDTH 720 0
DWIDTH 6 0
BBX 6 6 0 -1
BITMAP
70
98
A8
C8
70
00
ENDCHAR

STARTCHAR DIGIT ONE
ENCODING 49
SWIDTH 720 0
DWIDTH 6 0
BBX 6 6 0 -1
BITMAP
10
30
10
10
10
00
ENDCHAR

STARTCHAR DIGIT TWO
ENCODING 50
SWIDTH 720 0
DWIDTH 6 0
BBX 6 6 0 -1
BITMAP
F0
08
70
80
F8
00
ENDCHAR

STARTCHAR DIGIT THREE
ENCODING 51
SWIDTH 720 0
DWIDTH 6 0
BBX 6 6 0 -1
BITMAP
F0
08
70
08
F0
00
ENDCHAR

STARTCHAR DIGIT FOUR
ENCODING 52
SWIDTH 720 0
DWIDTH 6 0
BBX 6 6 0 -1
BITMAP
30
50
90
F8
10
00
ENDCHAR

STARTCHAR DIGIT FIVE
ENCODING 53
SWIDTH 720 0
DWIDTH 6 0
BBX 6 6 0 -1
BITMAP
F0
80
F0
08
F0
00
ENDCHAR

STARTCHAR DIGIT SIX
ENCODING 54
SWIDTH 720 0
DWIDTH 6 0
BBX 6 6 0 -1
BITMAP
70
80
F0
88
70
00
ENDCHAR

STARTCHAR DIGIT SEVEN
ENCODING 55
SWIDTH 720 0
DWIDTH 6 0
BBX 6 6 0 -1
BITMAP
F8
08
10
20
20
00
ENDCHAR

STARTCHAR DIGIT EIGHT
ENCODING 56
SWIDTH 720 0
DWIDTH 6 0
BBX 6 6 0 -1
BITMAP
70
88
70
88
70
00
ENDCHAR

STARTCHAR DIGIT NINE
ENCODING 57
SWIDTH 720 0
DWIDTH 6 0
BBX 6 6 0 -1
BITMAP
70
88
78
08
70
00
ENDCHAR

STARTCHAR COLON
ENCODING 58
SWIDTH 720 0
DWIDTH 6 0
BBX 6 6 0 -1
BITMAP
30
30
00
30
30
00
ENDCHAR

STARTCHAR SEMICOLON
ENCODING 59
SWIDTH 720 0
DWIDTH 6 0
BBX 6 6 0 -1
BITMAP
30
30
00
30
10
20
ENDCHAR

STARTCHAR LESS-THAN SIGN
ENCODING 60
SWIDTH 720 0
DWIDTH 6 0
BBX 6 6 0 -1
BITMAP
18
30
60
30
18
00
ENDCHAR

STARTCHAR EQUALS SIGN
ENCODING 61
SWIDTH 720 0
DWIDTH 6 0
BBX 6 6 0 -1
BITMAP
00
78
00
78
00
00
ENDCHAR

STARTCHAR GREATER-THAN SIGN
ENCODING 62
SWIDTH 720 0
DWIDTH 6 0
BBX 6 6 0 -1
BITMAP
60
30
18
30
60
00
ENDCHAR

STARTCHAR QUESTION MARK
ENCODING 63
SWIDTH 720 0
DWIDTH 6 0
BBX 6 6 0 -1
BITMAP
70
98
30
30
00
30
ENDCHAR

STARTCHAR COMMERCIAL AT
ENCODING 64
SWIDTH 720 0
DWIDTH 6 0
BBX 6 6 0 -1
BITMAP
70
88
B8
B0
80
78
ENDCHAR

STARTCHAR LATIN CAPITAL LETTER A
ENCODING 65
SWIDTH 720 0
DWIDTH 6 0
BBX 6 6 0 -1
BITMAP
70
88
F8
88
88
00
ENDCHAR

STARTCHAR LATIN CAPITAL LETTER B
ENCODING 66
SWIDTH 720 0
DWIDTH 6 0
BBX 6 6 0 -1
BITMAP
F0
88
F0
88
F0
00
ENDCHAR

STARTCHAR LATIN CAPITAL LETTER C
ENCODING 67
SWIDTH 720 0
DWIDTH 6 0
BBX 6 6 0 -1
BITMAP
78
80
80
80
78
00
ENDCHAR

STARTCHAR LATIN CAPITAL LETTER D
ENCODING 68
SWIDTH 720 0
DWIDTH 6 0
BBX 6 6 0 -1
BITMAP
F0
88
88
88
F0
00
ENDCHAR

STARTCHAR LATIN CAPITAL LETTER E
ENCODING 69
SWIDTH 720 0
DWIDTH 6 0
BBX 6 6 0 -1
BITMAP
F8
80
F0
80
F8
00
ENDCHAR

STARTCHAR LATIN CAPITAL LETTER F
ENCODING 70
SWIDTH 720 0
DWIDTH 6 0
BBX 6 6 0 -1
BITMAP
F8
80
F0
80
80
00
ENDCHAR

STARTCHAR LATIN CAPITAL LETTER G
ENCODING 71
SWIDTH 720 0
DWIDTH 6 0
BBX 6 6 0 -1
BITMAP
78
80
98
88
78
00
ENDCHAR

STARTCHAR LATIN CAPITAL LETTER H
ENCODING 72
SWIDTH 720 0
DWIDTH 6 0
BBX 6 6 0 -1
BITMAP
88
88
F8
88
88
00
ENDCHAR

STARTCHAR LATIN CAPITAL LETTER I
ENCODING 73
SWIDTH 720 0
DWIDTH 6 0
BBX 6 6 0 -1
BITMAP
70
20
20
20
70
00
ENDCHAR

STARTCHAR LATIN CAPITAL LETTER J
ENCODING 74
SWIDTH 720 0
DWIDTH 6 0
BBX 6 6 0 -1
BITMAP
08
08
08
88
70
00
ENDCHAR

STARTCHAR LATIN CAPITAL LETTER K
ENCODING 75
SWIDTH 720 0
DWIDTH 6 0
BBX 6 6 0 -1
BITMAP
48
50
60
50
48
00
ENDCHAR

STARTCHAR LATIN CAPITAL LETTER L
ENCODING 76
SWIDTH 720 0
DWIDTH 6 0
BBX 6 6 0 -1
BITMAP
40
40
40
40
78
00
ENDCHAR

STARTCHAR LATIN CAPITAL LETTER M
ENCODING 77
SWIDTH 720 0
DWIDTH 6 0
BBX 6 6 0 -1
BITMAP
88
D8
A8
88
88
00
ENDCHAR

STARTCHAR LATIN CAPITAL LETTER N
ENCODING 78
SWIDTH 720 0
DWIDTH 6 0
BBX 6 6 0 -1
BITMAP
88
C8
A8
98
88
00
ENDCHAR

STARTCHAR LATIN CAPITAL LETTER O
ENCODING 79
SWIDTH 720 0
DWIDTH 6 0
BBX 6 6 0 -1
BITMAP
70
88
88
88
70
00
ENDCHAR

STARTCHAR LATIN CAPITAL LETTER P
ENCODING 80
SWIDTH 720 0
DWIDTH 6 0
BBX 6 6 0 -1
BITMAP
F0
88
F0
80
80
00
ENDCHAR

STARTCHAR LATIN CAPITAL LETTER Q
ENCODING 81
SWIDTH 720 0
DWIDTH 6 0
BBX 6 6 0 -1
BITMAP
70
88
88
88
70
18
ENDCHAR

STARTCHAR LATIN CAPITAL LETTER R
ENCODING 82
SWIDTH 720 0
DWIDTH 6 0
BBX 6 6 0 -1
BITMAP
F0
88
F0
A0
98
00
ENDCHAR

STARTCHAR LATIN CAPITAL LETTER S
ENCODING 83
SWIDTH 720 0
DWIDTH 6 0
BBX 6 6 0 -1
BITMAP
78
80
70
08
F0
00
ENDCHAR

STARTCHAR LATIN CAPITAL LETTER T
ENCODING 84
SWIDTH 720 0
DWIDTH 6 0
BBX 6 6 0 -1
BITMAP
F8
20
20
20
20
00
ENDCHAR

STARTCHAR LATIN CAPITAL LETTER U
ENCODING 85
SWIDTH 720 0
DWIDTH 6 0
BBX 6 6 0 -1
BITMAP
88
88
88
88
78
00
ENDCHAR

STARTCHAR LATIN CAPITAL LETTER V
ENCODING 86
SWIDTH 720 0
DWIDTH 6 0
BBX 6 6 0 -1
BITMAP
88
88
88
50
20
00
ENDCHAR

STARTCHAR LATIN CAPITAL LETTER W
ENCODING 87
SWIDTH 720 0
DWIDTH 6 0
BBX 6 6 0 -1
BITMAP
88
88
A8
D8
88
00
ENDCHAR

STARTCHAR LATIN CAPITAL LETTER X
ENCODING 88
SWIDTH 720 0
DWIDTH 6 0
BBX 6 6 0 -1
BITMAP
88
50
20
50
88
00
ENDCHAR

STARTCHAR LATIN CAPITAL LETTER Y
ENCODING 89
SWIDTH 720 0
DWIDTH 6 0
BBX 6 6 0 -1
BITMAP
88
88
50
20
20
00
ENDCHAR

STARTCHAR LATIN CAPITAL LETTER Z
ENCODING 90
SWIDTH 720 0
DWIDTH 6 0
BBX 6 6 0 -1
BITMAP
F8
10
20
40
F8
00
ENDCHAR

STARTCHAR LEFT SQUARE BRACKET
ENCODING 91
SWIDTH 720 0
DWIDTH 6 0
BBX 6 6 0 -1
BITMAP
78
60
60
60
78
00
ENDCHAR

STARTCHAR REVERSE SOLIDUS
ENCODING 92
SWIDTH 720 0
DWIDTH 6 0
BBX 6 6 0 -1
BITMAP
C0
60
30
18
08
00
ENDCHAR

STARTCHAR RIGHT SQUARE BRACKET
ENCODING 93
SWIDTH 720 0
DWIDTH 6 0
BBX 6 6 0 -1
BITMAP
78
18
18
18
78
00
ENDCHAR

STARTCHAR CIRCUMFLEX ACCENT
ENCODING 94
SWIDTH 720 0
DWIDTH 6 0
BBX 6 6 0 -1
BITMAP
20
70
D8
00
00
00
ENDCHAR

STARTCHAR LOW LINE
ENCODING 95
SWIDTH 720 0
DWIDTH 6 0
BBX 6 6 0 -1
BITMAP
00
00
00
00
00
F8
ENDCHAR

STARTCHAR GRAVE ACCENT
ENCODING 96
SWIDTH 720 0
DWIDTH 6 0
BBX 6 6 0 -1
BITMAP
60
60
30
00
00
00
ENDCHAR

STARTCHAR LATIN SMALL LETTER A
ENCODING 97
SWIDTH 720 0
DWIDTH 6 0
BBX 6 6 0 -1
BITMAP
00
70
08
F8
78
00
ENDCHAR

STARTCHAR LATIN SMALL LETTER B
ENCODING 98
SWIDTH 720 0
DWIDTH 6 0
BBX 6 6 0 -1
BITMAP
80
F0
88
88
F0
00
ENDCHAR

STARTCHAR LATIN SMALL LETTER C
ENCODING 99
SWIDTH 720 0
DWIDTH 6 0
BBX 6 6 0 -1
BITMAP
00
70
80
80
70
00
ENDCHAR

STARTCHAR LATIN SMALL LETTER D
ENCODING 100
SWIDTH 720 0
DWIDTH 6 0
BBX 6 6 0 -1
BITMAP
08
78
88
88
78
00
ENDCHAR

STARTCHAR LATIN SMALL LETTER E
ENCODING 101
SWIDTH 720 0
DWIDTH 6 0
BBX 6 6 0 -1
BITMAP
00
70
F8
80
70
00
ENDCHAR

STARTCHAR LATIN SMALL LETTER F
ENCODING 102
SWIDTH 720 0
DWIDTH 6 0
BBX 6 6 0 -1
BITMAP
18
20
78
20
20
00
ENDCHAR

STARTCHAR LATIN SMALL LETTER G
ENCODING 103
SWIDTH 720 0
DWIDTH 6 0
BBX 6 6 0 -1
BITMAP
00
78
88
78
08
F0
ENDCHAR

STARTCHAR LATIN SMALL LETTER H
ENCODING 104
SWIDTH 720 0
DWIDTH 6 0
BBX 6 6 0 -1
BITMAP
80
B0
C8
88
88
00
ENDCHAR

STARTCHAR LATIN SMALL LETTER I
ENCODING 105
SWIDTH 720 0
DWIDTH 6 0
BBX 6 6 0 -1
BITMAP
00
60
20
20
70
00
ENDCHAR

STARTCHAR LATIN SMALL LETTER J
ENCODING 106
SWIDTH 720 0
DWIDTH 6 0
BBX 6 6 0 -1
BITMAP
10
10
10
10
10
E0
ENDCHAR

STARTCHAR LATIN SMALL LETTER K
ENCODING 107
SWIDTH 720 0
DWIDTH 6 0
BBX 6 6 0 -1
BITMAP
80
90
E0
90
88
00
ENDCHAR

STARTCHAR LATIN SMALL LETTER L
ENCODING 108
SWIDTH 720 0
DWIDTH 6 0
BBX 6 6 0 -1
BITMAP
60
20
20
20
70
00
ENDCHAR

STARTCHAR LATIN SMALL LETTER M
ENCODING 109
SWIDTH 720 0
DWIDTH 6 0
BBX 6 6 0 -1
BITMAP
00
50
F8
A8
88
00
ENDCHAR

STARTCHAR LATIN SMALL LETTER N
ENCODING 110
SWIDTH 720 0
DWIDTH 6 0
BBX 6 6 0 -1
BITMAP
00
F0
88
88
88
00
ENDCHAR

STARTCHAR LATIN SMALL LETTER O
ENCODING 111
SWIDTH 720 0
DWIDTH 6 0
BBX 6 6 0 -1
BITMAP
00
70
88
88
70
00
ENDCHAR

STARTCHAR LATIN SMALL LETTER P
ENCODING 112
SWIDTH 720 0
DWIDTH 6 0
BBX 6 6 0 -1
BITMAP
00
F0
88
88
F0
80
ENDCHAR

STARTCHAR LATIN SMALL LETTER Q
ENCODING 113
SWIDTH 720 0
DWIDTH 6 0
BBX 6 6 0 -1
BITMAP
00
78
88
88
78
08
ENDCHAR

STARTCHAR LATIN SMALL LETTER R
ENCODING 114
SWIDTH 720 0
DWIDTH 6 0
BBX 6 6 0 -1
BITMAP
00
70
48
40
40
00
ENDCHAR

STARTCHAR LATIN SMALL LETTER S
ENCODING 115
SWIDTH 720 0
DWIDTH 6 0
BBX 6 6 0 -1
BITMAP
00
38
60
18
70
00
ENDCHAR

STARTCHAR LATIN SMALL LETTER T
ENCODING 116
SWIDTH 720 0
DWIDTH 6 0
BBX 6 6 0 -1
BITMAP
20
70
20
20
10
00
ENDCHAR

STARTCHAR LATIN SMALL LETTER U
ENCODING 117
SWIDTH 720 0
DWIDTH 6 0
BBX 6 6 0 -1
BITMAP
00
88
88
88
78
00
ENDCHAR

STARTCHAR LATIN SMALL LETTER V
ENCODING 118
SWIDTH 720 0
DWIDTH 6 0
BBX 6 6 0 -1
BITMAP
00
88
88
50
20
00
ENDCHAR

STARTCHAR LATIN SMALL LETTER W
ENCODING 119
SWIDTH 720 0
DWIDTH 6 0
BBX 6 6 0 -1
BITMAP
00
88
A8
A8
D8
00
ENDCHAR

STARTCHAR LATIN SMALL LETTER X
ENCODING 120
SWIDTH 720 0
DWIDTH 6 0
BBX 6 6 0 -1
BITMAP
00
48
30
30
48
00
ENDCHAR

STARTCHAR LATIN SMALL LETTER Y
ENCODING 121
SWIDTH 720 0
DWIDTH 6 0
BBX 6 6 0 -1
BITMAP
00
88
88
78
08
F0
ENDCHAR

STARTCHAR LATIN SMALL LETTER Z
ENCODING 122
SWIDTH 720 0
DWIDTH 6 0
BBX 6 6 0 -1
BITMAP
00
78
10
20
78
00
ENDCHAR

STARTCHAR LEFT CURLY BRACKET
ENCODING 123
SWIDTH 720 0
DWIDTH 6 0
BBX 6 6 0 -1
BITMAP
38
30
60
30
38
00
ENDCHAR

STARTCHAR VERTICAL LINE
ENCODING 124
SWIDTH 720 0
DWIDTH 6 0
BBX 6 6 0 -1
BITMAP
30
30
30
30
30
30
ENDCHAR

STARTCHAR RIGHT CURLY BRACKET
ENCODING 125
SWIDTH 720 0
DWIDTH 6 0
BBX 6 6 0 -1
BITMAP
70
30
18
30
70
00
ENDCHAR

STARTCHAR TILDE
ENCODING 126
SWIDTH 720 0
DWIDTH 6 0
BBX 6 6 0 -1
BITMAP
40
E8
B8
10
00
00
ENDCHAR

STARTCHAR DELETE
ENCODING 127
SWIDTH 720 0
DWIDTH 6 0
BBX 6 6 0 -1
BITMAP
00
20
70
C8
F8
00
ENDCHAR

STARTCHAR LATIN CAPITAL LETTER C WITH CEDILLA
ENCODING 199
SWIDTH 720 0
DWIDTH 6 0
BBX 6 6 0 -1
BITMAP
78
80
80
80
78
C0
ENDCHAR

STARTCHAR LATIN SMALL LETTER U WITH DIAERESIS
ENCODING 252
SWIDTH 720 0
DWIDTH 6 0
BBX 6 6 0 -1
BITMAP
50
00
88
88
88
78
ENDCHAR

STARTCHAR LATIN SMALL LETTER E WITH ACUTE
ENCODING 233
SWIDTH 720 0
DWIDTH 6 0
BBX 6 6 0 -1
BITMAP
10
20
70
F8
80
70
ENDCHAR

STARTCHAR LATIN SMALL LETTER A WITH CIRCUMFLEX
ENCODING 226
SWIDTH 720 0
DWIDTH 6 0
BBX 6 6 0 -1
BITMAP
20
50
70
08
F8
78
ENDCHAR

STARTCHAR LATIN SMALL LETTER A WITH DIAERESIS
ENCODING 228
SWIDTH 720 0
DWIDTH 6 0
BBX 6 6 0 -1
BITMAP
50
00
70
08
F8
78
ENDCHAR

STARTCHAR LATIN SMALL LETTER A WITH GRAVE
ENCODING 224
SWIDTH 720 0
DWIDTH 6 0
BBX 6 6 0 -1
BITMAP
40
20
70
08
F8
78
ENDCHAR

STARTCHAR LATIN SMALL LETTER A WITH RING ABOVE
ENCODING 229
SWIDTH 720 0
DWIDTH 6 0
BBX 6 6 0 -1
BITMAP
20
00
70
08
F8
78
ENDCHAR

STARTCHAR LATIN SMALL LETTER C WITH CEDILLA
ENCODING 231
SWIDTH 720 0
DWIDTH 6 0
BBX 6 6 0 -1
BITMAP
00
78
80
80
78
E0
ENDCHAR

STARTCHAR LATIN SMALL LETTER E WITH CIRCUMFLEX
ENCODING 234
SWIDTH 720 0
DWIDTH 6 0
BBX 6 6 0 -1
BITMAP
20
50
70
F8
80
70
ENDCHAR

STARTCHAR LATIN SMALL LETTER E WITH DIAERESIS
ENCODING 235
SWIDTH 720 0
DWIDTH 6 0
BBX 6 6 0 -1
BITMAP
50
00
70
F8
80
70
ENDCHAR

STARTCHAR LATIN SMALL LETTER E WITH GRAVE
ENCODING 232
SWIDTH 720 0
DWIDTH 6 0
BBX 6 6 0 -1
BITMAP
40
20
70
F8
80
70
ENDCHAR

STARTCHAR LATIN SMALL LETTER I WITH DIAERESIS
ENCODING 239
SWIDTH 720 0
DWIDTH 6 0
BBX 6 6 0 -1
BITMAP
50
00
60
20
20
70
ENDCHAR

STARTCHAR LATIN SMALL LETTER I WITH CIRCUMFLEX
ENCODING 238
SWIDTH 720 0
DWIDTH 6 0
BBX 6 6 0 -1
BITMAP
20
50
20
20
20
70
ENDCHAR

STARTCHAR LATIN SMALL LETTER I WITH GRAVE
ENCODING 236
SWIDTH 720 0
DWIDTH 6 0
BBX 6 6 0 -1
BITMAP
40
20
60
20
20
70
ENDCHAR

STARTCHAR LATIN CAPITAL LETTER A WITH DIAERESIS
ENCODING 196
SWIDTH 720 0
DWIDTH 6 0
BBX 6 6 0 -1
BITMAP
50
00
70
88
F8
88
ENDCHAR

STARTCHAR LATIN CAPITAL LETTER A WITH RING ABOVE
ENCODING 197
SWIDTH 720 0
DWIDTH 6 0
BBX 6 6 0 -1
BITMAP
20
00
70
88
F8
88
ENDCHAR

STARTCHAR LATIN CAPITAL LETTER E WITH ACUTE
ENCODING 201
SWIDTH 720 0
DWIDTH 6 0
BBX 6 6 0 -1
BITMAP
20
F8
80
F0
80
F8
ENDCHAR

STARTCHAR LATIN SMALL LETTER AE
ENCODING 230
SWIDTH 720 0
DWIDTH 6 0
BBX 6 6 0 -1
BITMAP
00
F0
38
E0
78
00
ENDCHAR

STARTCHAR LATIN CAPITAL LETTER AE
ENCODING 198
SWIDTH 720 0
DWIDTH 6 0
BBX 6 6 0 -1
BITMAP
78
A0
F8
A0
B8
00
ENDCHAR

STARTCHAR LATIN SMALL LETTER O WITH CIRCUMFLEX
ENCODING 244
SWIDTH 720 0
DWIDTH 6 0
BBX 6 6 0 -1
BITMAP
20
50
70
88
88
70
ENDCHAR

STARTCHAR LATIN SMALL LETTER O WITH DIAERESIS
ENCODING 246
SWIDTH 720 0
DWIDTH 6 0
BBX 6 6 0 -1
BITMAP
50
00
70
88
88
70
ENDCHAR

STARTCHAR LATIN SMALL LETTER O WITH GRAVE
ENCODING 242
SWIDTH 720 0
DWIDTH 6 0
BBX 6 6 0 -1
BITMAP
40
20
70
88
88
70
ENDCHAR

STARTCHAR LATIN SMALL LETTER U WITH CIRCUMFLEX
ENCODING 251
SWIDTH 720 0
DWIDTH 6 0
BBX 6 6 0 -1
BITMAP
20
50
88
88
88
78
ENDCHAR

STARTCHAR LATIN SMALL LETTER U WITH GRAVE
ENCODING 249
SWIDTH 720 0
DWIDTH 6 0
BBX 6 6 0 -1
BITMAP
40
20
88
88
88
78
ENDCHAR

STARTCHAR LATIN SMALL LETTER Y WITH DIAERESIS
ENCODING 255
SWIDTH 720 0
DWIDTH 6 0
BBX 6 6 0 -1
BITMAP
50
00
88
78
08
F0
ENDCHAR

STARTCHAR LATIN CAPITAL LETTER O WITH DIAERESIS
ENCODING 214
SWIDTH 720 0
DWIDTH 6 0
BBX 6 6 0 -1
BITMAP
50
00
70
88
88
70
ENDCHAR

STARTCHAR LATIN CAPITAL LETTER U WITH DIAERESIS
ENCODING 220
SWIDTH 720 0
DWIDTH 6 0
BBX 6 6 0 -1
BITMAP
50
00
88
88
88
78
ENDCHAR

STARTCHAR CENT SIGN
ENCODING 162
SWIDTH 720 0
DWIDTH 6 0
BBX 6 6 0 -1
BITMAP
10
38
60
38
10
00
ENDCHAR

STARTCHAR POUND SIGN
ENCODING 163
SWIDTH 720 0
DWIDTH 6 0
BBX 6 6 0 -1
BITMAP
18
20
70
20
78
00
ENDCHAR

STARTCHAR YEN SIGN
ENCODING 165
SWIDTH 720 0
DWIDTH 6 0
BBX 6 6 0 -1
BITMAP
88
D8
70
20
70
20
ENDCHAR

STARTCHAR LATIN SMALL LETTER SHARP S
ENCODING 223
SWIDTH 720 0
DWIDTH 6 0
BBX 6 6 0 -1
BITMAP
F0
D8
F0
D8
F0
C0
ENDCHAR

STARTCHAR LATIN SMALL LETTER F WITH HOOK
ENCODING 402
SWIDTH 720 0
DWIDTH 6 0
BBX 6 6 0 -1
BITMAP
18
20
78
20
20
C0
ENDCHAR

STARTCHAR LATIN SMALL LETTER A WITH ACUTE
ENCODING 225
SWIDTH 720 0
DWIDTH 6 0
BBX 6 6 0 -1
BITMAP
10
20
70
08
F8
78
ENDCHAR

STARTCHAR LATIN SMALL LETTER I WITH ACUTE
ENCODING 237
SWIDTH 720 0
DWIDTH 6 0
BBX 6 6 0 -1
BITMAP
10
20
60
20
20
70
ENDCHAR

STARTCHAR LATIN SMALL LETTER O WITH ACUTE
ENCODING 243
SWIDTH 720 0
DWIDTH 6 0
BBX 6 6 0 -1
BITMAP
10
20
70
88
88
70
ENDCHAR

STARTCHAR LATIN SMALL LETTER U WITH ACUTE
ENCODING 250
SWIDTH 720 0
DWIDTH 6 0
BBX 6 6 0 -1
BITMAP
10
20
88
88
88
78
ENDCHAR

STARTCHAR LATIN SMALL LETTER N WITH TILDE
ENCODING 241
SWIDTH 720 0
DWIDTH 6 0
BBX 6 6 0 -1
BITMAP
F0
00
F0
88
88
88
ENDCHAR

STARTCHAR LATIN CAPITAL LETTER N WITH TILDE
ENCODING 209
SWIDTH 720 0
DWIDTH 6 0
BBX 6 6 0 -1
BITMAP
78
00
48
68
58
48
ENDCHAR

STARTCHAR FEMININE ORDINAL INDICATOR
ENCODING 170
SWIDTH 720 0
DWIDTH 6 0
BBX 6 6 0 -1
BITMAP
70
08
F8
78
00
F8
ENDCHAR

STARTCHAR MASCULINE ORDINAL INDICATOR
ENCODING 186
SWIDTH 720 0
DWIDTH 6 0
BBX 6 6 0 -1
BITMAP
70
88
88
70
00
F8
ENDCHAR

STARTCHAR INVERTED QUESTION MARK
ENCODING 191
SWIDTH 720 0
DWIDTH 6 0
BBX 6 6 0 -1
BITMAP
60
00
60
60
C8
70
ENDCHAR

STARTCHAR REVERSED NOT SIGN
ENCODING 8976
SWIDTH 720 0
DWIDTH 6 0
BBX 6 6 0 -1
BITMAP
00
00
78
40
40
00
ENDCHAR

STARTCHAR NOT SIGN
ENCODING 172
SWIDTH 720 0
DWIDTH 6 0
BBX 6 6 0 -1
BITMAP
00
00
78
08
08
00
ENDCHAR

STARTCHAR VULGAR FRACTION ONE HALF
ENCODING 189
SWIDTH 720 0
DWIDTH 6 0
BBX 6 6 0 -1
BITMAP
C0
C0
D8
2C
18
3C
ENDCHAR

STARTCHAR VULGAR FRACTION ONE QUARTER
ENCODING 188
SWIDTH 720 0
DWIDTH 6 0
BBX 6 6 0 -1
BITMAP
C0
C0
CC
14
3C
04
ENDCHAR

STARTCHAR INVERTED EXCLAMATION MARK
ENCODING 161
SWIDTH 720 0
DWIDTH 6 0
BBX 6 6 0 -1
BITMAP
30
00
30
30
30
30
ENDCHAR

STARTCHAR LEFT-POINTING DOUBLE ANGLE QUOTATION MARK
ENCODING 171
SWIDTH 720 0
DWIDTH 6 0
BBX 6 6 0 -1
BITMAP
34
6C
D8
6C
34
00
ENDCHAR

STARTCHAR RIGHT-POINTING DOUBLE ANGLE QUOTATION MARK
ENCODING 187
SWIDTH 720 0
DWIDTH 6 0
BBX 6 6 0 -1
BITMAP
B0
D8
6C
D8
B0
00
ENDCHAR

STARTCHAR LATIN SMALL LETTER A WITH TILDE
ENCODING 227
SWIDTH 720 0
DWIDTH 6 0
BBX 6 6 0 -1
BITMAP
68
B0
70
08
F8
78
ENDCHAR

STARTCHAR LATIN SMALL LETTER O WITH TILDE
ENCODING 245
SWIDTH 720 0
DWIDTH 6 0
BBX 6 6 0 -1
BITMAP
68
B0
70
88
88
70
ENDCHAR

STARTCHAR LATIN CAPITAL LETTER O WITH STROKE
ENCODING 216
SWIDTH 720 0
DWIDTH 6 0
BBX 6 6 0 -1
BITMAP
34
48
58
68
48
B0
ENDCHAR

STARTCHAR LATIN SMALL LETTER O WITH STROKE
ENCODING 248
SWIDTH 720 0
DWIDTH 6 0
BBX 6 6 0 -1
BITMAP
08
30
58
68
30
40
ENDCHAR

STARTCHAR LATIN SMALL LIGATURE OE
ENCODING 339
SWIDTH 720 0
DWIDTH 6 0
BBX 6 6 0 -1
BITMAP
00
70
B8
A0
78
00
ENDCHAR

STARTCHAR LATIN CAPITAL LIGATURE OE
ENCODING 338
SWIDTH 720 0
DWIDTH 6 0
BBX 6 6 0 -1
BITMAP
78
B0
B8
B0
78
00
ENDCHAR

STARTCHAR LATIN CAPITAL LETTER A WITH GRAVE
ENCODING 192
SWIDTH 720 0
DWIDTH 6 0
BBX 6 6 0 -1
BITMAP
40
20
70
88
F8
88
ENDCHAR

STARTCHAR LATIN CAPITAL LETTER A WITH TILDE
ENCODING 195
SWIDTH 720 0
DWIDTH 6 0
BBX 6 6 0 -1
BITMAP
68
B0
70
88
F8
88
ENDCHAR

STARTCHAR LATIN CAPITAL LETTER O WITH TILDE
ENCODING 213
SWIDTH 720 0
DWIDTH 6 0
BBX 6 6 0 -1
BITMAP
68
B0
70
88
88
70
ENDCHAR

STARTCHAR DIAERESIS
ENCODING 168
SWIDTH 720 0
DWIDTH 6 0
BBX 6 6 0 -1
BITMAP
50
00
00
00
00
00
ENDCHAR

STARTCHAR ACUTE ACCENT
ENCODING 180
SWIDTH 720 0
DWIDTH 6 0
BBX 6 6 0 -1
BITMAP
10
20
00
00
00
00
ENDCHAR

STARTCHAR DAGGER
ENCODING 8224
SWIDTH 720 0
DWIDTH 6 0
BBX 6 6 0 -1
BITMAP
20
70
20
20
20
00
ENDCHAR

STARTCHAR PILCROW SIGN
ENCODING 182
SWIDTH 720 0
DWIDTH 6 0
BBX 6 6 0 -1
BITMAP
68
E8
E8
68
28
28
ENDCHAR

STARTCHAR COPYRIGHT SIGN
ENCODING 169
SWIDTH 720 0
DWIDTH 6 0
BBX 6 6 0 -1
BITMAP
78
CC
B4
BC
C4
78
ENDCHAR

STARTCHAR REGISTERED SIGN
ENCODING 174
SWIDTH 720 0
DWIDTH 6 0
BBX 6 6 0 -1
BITMAP
78
8C
B4
8C
A4
78
ENDCHAR

STARTCHAR TRADE MARK SIGN
ENCODING 8482
SWIDTH 720 0
DWIDTH 6 0
BBX 6 6 0 -1
BITMAP
F4
5C
54
00
00
00
ENDCHAR

STARTCHAR LATIN SMALL LIGATURE IJ
ENCODING 307
SWIDTH 720 0
DWIDTH 6 0
BBX 6 6 0 -1
BITMAP
48
00
48
48
48
10
ENDCHAR

STARTCHAR LATIN CAPITAL LIGATURE IJ
ENCODING 306
SWIDTH 720 0
DWIDTH 6 0
BBX 6 6 0 -1
BITMAP
E8
48
48
E8
08
30
ENDCHAR

STARTCHAR HEBREW LETTER ALEF
ENCODING 1488
SWIDTH 720 0
DWIDTH 6 0
BBX 6 6 0 -1
BITMAP
98
D8
70
D8
C8
00
ENDCHAR

STARTCHAR HEBREW LETTER BET
ENCODING 1489
SWIDTH 720 0
DWIDTH 6 0
BBX 6 6 0 -1
BITMAP
F0
30
30
30
F8
00
ENDCHAR

STARTCHAR HEBREW LETTER GIMEL
ENCODING 1490
SWIDTH 720 0
DWIDTH 6 0
BBX 6 6 0 -1
BITMAP
78
08
18
38
68
00
ENDCHAR

STARTCHAR HEBREW LETTER DALET
ENCODING 1491
SWIDTH 720 0
DWIDTH 6 0
BBX 6 6 0 -1
BITMAP
FC
18
18
18
18
00
ENDCHAR

STARTCHAR HEBREW LETTER HE
ENCODING 1492
SWIDTH 720 0
DWIDTH 6 0
BBX 6 6 0 -1
BITMAP
F0
18
D8
D8
D8
00
ENDCHAR

STARTCHAR HEBREW LETTER VAV
ENCODING 1493
SWIDTH 720 0
DWIDTH 6 0
BBX 6 6 0 -1
BITMAP
70
30
30
30
30
00
ENDCHAR

STARTCHAR HEBREW LETTER ZAYIN
ENCODING 1494
SWIDTH 720 0
DWIDTH 6 0
BBX 6 6 0 -1
BITMAP
78
30
18
18
18
00
ENDCHAR

STARTCHAR HEBREW LETTER HET
ENCODING 1495
SWIDTH 720 0
DWIDTH 6 0
BBX 6 6 0 -1
BITMAP
FC
6C
6C
6C
6C
00
ENDCHAR

STARTCHAR HEBREW LETTER TET
ENCODING 1496
SWIDTH 720 0
DWIDTH 6 0
BBX 6 6 0 -1
BITMAP
C0
D8
D8
D8
F8
00
ENDCHAR

STARTCHAR HEBREW LETTER YOD
ENCODING 1497
SWIDTH 720 0
DWIDTH 6 0
BBX 6 6 0 -1
BITMAP
78
18
18
00
00
00
ENDCHAR

STARTCHAR HEBREW LETTER KAF
ENCODING 1499
SWIDTH 720 0
DWIDTH 6 0
BBX 6 6 0 -1
BITMAP
F0
18
18
18
F0
00
ENDCHAR

STARTCHAR HEBREW LETTER LAMED
ENCODING 1500
SWIDTH 720 0
DWIDTH 6 0
BBX 6 6 0 -1
BITMAP
C0
F8
18
18
78
00
ENDCHAR

STARTCHAR HEBREW LETTER MEM
ENCODING 1502
SWIDTH 720 0
DWIDTH 6 0
BBX 6 6 0 -1
BITMAP
D8
7C
64
64
6C
00
ENDCHAR

STARTCHAR HEBREW LETTER NUN
ENCODING 1504
SWIDTH 720 0
DWIDTH 6 0
BBX 6 6 0 -1
BITMAP
38
18
18
18
78
00
ENDCHAR

STARTCHAR HEBREW LETTER SAMEKH
ENCODING 1505
SWIDTH 720 0
DWIDTH 6 0
BBX 6 6 0 -1
BITMAP
F8
D8
D8
D8
70
00
ENDCHAR

STARTCHAR HEBREW LETTER AYIN
ENCODING 1506
SWIDTH 720 0
DWIDTH 6 0
BBX 6 6 0 -1
BITMAP
6C
6C
6C
6C
FC
00
ENDCHAR

STARTCHAR HEBREW LETTER PE
ENCODING 1508
SWIDTH 720 0
DWIDTH 6 0
BBX 6 6 0 -1
BITMAP
F8
98
D8
18
F8
00
ENDCHAR

STARTCHAR HEBREW LETTER TSADI
ENCODING 1510
SWIDTH 720 0
DWIDTH 6 0
BBX 6 6 0 -1
BITMAP
D8
D8
70
38
F8
00
ENDCHAR

STARTCHAR HEBREW LETTER QOF
ENCODING 1511
SWIDTH 720 0
DWIDTH 6 0
BBX 6 6 0 -1
BITMAP
F8
18
D8
D0
C0
C0
ENDCHAR

STARTCHAR HEBREW LETTER RESH
ENCODING 1512
SWIDTH 720 0
DWIDTH 6 0
BBX 6 6 0 -1
BITMAP
70
18
18
18
18
00
ENDCHAR

STARTCHAR HEBREW LETTER SHIN
ENCODING 1513
SWIDTH 720 0
DWIDTH 6 0
BBX 6 6 0 -1
BITMAP
D4
D4
F4
C4
FC
00
ENDCHAR

STARTCHAR HEBREW LETTER TAV
ENCODING 1514
SWIDTH 720 0
DWIDTH 6 0
BBX 6 6 0 -1
BITMAP
78
58
58
58
D8
00
ENDCHAR

STARTCHAR HEBREW LETTER FINAL NUN
ENCODING 1503
SWIDTH 720 0
DWIDTH 6 0
BBX 6 6 0 -1
BITMAP
38
18
18
18
18
00
ENDCHAR

STARTCHAR HEBREW LETTER FINAL KAF
ENCODING 1498
SWIDTH 720 0
DWIDTH 6 0
BBX 6 6 0 -1
BITMAP
F8
18
18
18
18
00
ENDCHAR

STARTCHAR HEBREW LETTER FINAL MEM
ENCODING 1501
SWIDTH 720 0
DWIDTH 6 0
BBX 6 6 0 -1
BITMAP
00
FC
6C
6C
7C
00
ENDCHAR

STARTCHAR HEBREW LETTER FINAL PE
ENCODING 1507
SWIDTH 720 0
DWIDTH 6 0
BBX 6 6 0 -1
BITMAP
F8
98
D8
18
18
00
ENDCHAR

STARTCHAR HEBREW LETTER FINAL TSADI
ENCODING 1509
SWIDTH 720 0
DWIDTH 6 0
BBX 6 6 0 -1
BITMAP
D8
D8
70
30
30
00
ENDCHAR

STARTCHAR SECTION SIGN
ENCODING 167
SWIDTH 720 0
DWIDTH 6 0
BBX 6 6 0 -1
BITMAP
30
28
70
70
A0
60
ENDCHAR

STARTCHAR LOGICAL AND
ENCODING 8743
SWIDTH 720 0
DWIDTH 6 0
BBX 6 6 0 -1
BITMAP
00
20
70
D8
88
00
ENDCHAR

STARTCHAR INFINITY
ENCODING 8734
SWIDTH 720 0
DWIDTH 6 0
BBX 6 6 0 -1
BITMAP
00
58
B4
B4
68
00
ENDCHAR

STARTCHAR GREEK SMALL LETTER ALPHA
ENCODING 945
SWIDTH 720 0
DWIDTH 6 0
BBX 6 6 0 -1
BITMAP
00
68
D0
D0
68
00
ENDCHAR

STARTCHAR GREEK SMALL LETTER BETA
ENCODING 946
SWIDTH 720 0
DWIDTH 6 0
BBX 6 6 0 -1
BITMAP
70
D8
F0
D8
F0
C0
ENDCHAR

STARTCHAR GREEK CAPITAL LETTER GAMMA
ENCODING 915
SWIDTH 720 0
DWIDTH 6 0
BBX 6 6 0 -1
BITMAP
FC
6C
64
60
60
60
ENDCHAR

STARTCHAR GREEK SMALL LETTER PI
ENCODING 960
SWIDTH 720 0
DWIDTH 6 0
BBX 6 6 0 -1
BITMAP
00
F8
50
50
50
00
ENDCHAR

STARTCHAR GREEK CAPITAL LETTER SIGMA
ENCODING 931
SWIDTH 720 0
DWIDTH 6 0
BBX 6 6 0 -1
BITMAP
F8
60
30
60
C0
F8
ENDCHAR

STARTCHAR GREEK SMALL LETTER SIGMA
ENCODING 963
SWIDTH 720 0
DWIDTH 6 0
BBX 6 6 0 -1
BITMAP
38
70
D8
D8
70
00
ENDCHAR

STARTCHAR MICRO SIGN
ENCODING 181
SWIDTH 720 0
DWIDTH 6 0
BBX 6 6 0 -1
BITMAP
00
68
68
68
7C
C0
ENDCHAR

STARTCHAR GREEK SMALL LETTER TAU
ENCODING 964
SWIDTH 720 0
DWIDTH 6 0
BBX 6 6 0 -1
BITMAP
00
F8
30
30
30
20
ENDCHAR

STARTCHAR GREEK CAPITAL LETTER PHI
ENCODING 934
SWIDTH 720 0
DWIDTH 6 0
BBX 6 6 0 -1
BITMAP
70
70
A8
A8
70
70
ENDCHAR

STARTCHAR GREEK CAPITAL LETTER THETA
ENCODING 920
SWIDTH 720 0
DWIDTH 6 0
BBX 6 6 0 -1
BITMAP
70
D8
F8
D8
70
00
ENDCHAR

STARTCHAR GREEK CAPITAL LETTER OMEGA
ENCODING 937
SWIDTH 720 0
DWIDTH 6 0
BBX 6 6 0 -1
BITMAP
70
D8
D8
50
D8
00
ENDCHAR

STARTCHAR GREEK SMALL LETTER DELTA
ENCODING 948
SWIDTH 720 0
DWIDTH 6 0
BBX 6 6 0 -1
BITMAP
30
68
70
D8
D8
70
ENDCHAR

STARTCHAR CONTOUR INTEGRAL
ENCODING 8750
SWIDTH 720 0
DWIDTH 6 0
BBX 6 6 0 -1
BITMAP
18
20
70
A8
70
C0
ENDCHAR

STARTCHAR GREEK SMALL LETTER PHI
ENCODING 966
SWIDTH 720 0
DWIDTH 6 0
BBX 6 6 0 -1
BITMAP
20
70
A8
A8
70
20
ENDCHAR

STARTCHAR ELEMENT OF
ENCODING 8712
SWIDTH 720 0
DWIDTH 6 0
BBX 6 6 0 -1
BITMAP
38
40
78
40
38
00
ENDCHAR

STARTCHAR INTERSECTION
ENCODING 8745
SWIDTH 720 0
DWIDTH 6 0
BBX 6 6 0 -1
BITMAP
30
48
48
48
48
00
ENDCHAR

STARTCHAR IDENTICAL TO
ENCODING 8801
SWIDTH 720 0
DWIDTH 6 0
BBX 6 6 0 -1
BITMAP
78
00
78
00
78
00
ENDCHAR

STARTCHAR PLUS-MINUS SIGN
ENCODING 177
SWIDTH 720 0
DWIDTH 6 0
BBX 6 6 0 -1
BITMAP
20
F8
20
00
F8
00
ENDCHAR

STARTCHAR GREATER-THAN OR EQUAL TO
ENCODING 8805
SWIDTH 720 0
DWIDTH 6 0
BBX 6 6 0 -1
BITMAP
60
18
60
00
78
00
ENDCHAR

STARTCHAR LESS-THAN OR EQUAL TO
ENCODING 8804
SWIDTH 720 0
DWIDTH 6 0
BBX 6 6 0 -1
BITMAP
18
60
18
00
78
00
ENDCHAR

STARTCHAR TOP HALF INTEGRAL
ENCODING 8992
SWIDTH 720 0
DWIDTH 6 0
BBX 6 6 0 -1
BITMAP
0C
10
30
30
30
30
ENDCHAR

STARTCHAR BOTTOM HALF INTEGRAL
ENCODING 8993
SWIDTH 720 0
DWIDTH 6 0
BBX 6 6 0 -1
BITMAP
30
30
30
30
20
C0
ENDCHAR

STARTCHAR DIVISION SIGN
ENCODING 247
SWIDTH 720 0
DWIDTH 6 0
BBX 6 6 0 -1
BITMAP
20
00
F8
00
20
00
ENDCHAR

STARTCHAR ALMOST EQUAL TO
ENCODING 8776
SWIDTH 720 0
DWIDTH 6 0
BBX 6 6 0 -1
BITMAP
68
B0
00
68
B0
00
ENDCHAR

STARTCHAR DEGREE SIGN
ENCODING 176
SWIDTH 720 0
DWIDTH 6 0
BBX 6 6 0 -1
BITMAP
30
48
30
00
00
00
ENDCHAR

STARTCHAR BULLET OPERATOR
ENCODING 8729
SWIDTH 720 0
DWIDTH 6 0
BBX 6 6 0 -1
BITMAP
30
78
30
00
00
00
ENDCHAR

STARTCHAR MIDDLE DOT
ENCODING 183
SWIDTH 720 0
DWIDTH 6 0
BBX 6 6 0 -1
BITMAP
00
00
30
30
00
00
ENDCHAR

STARTCHAR SQUARE ROOT
ENCODING 8730
SWIDTH 720 0
DWIDTH 6 0
BBX 6 6 0 -1
BITMAP
00
1C
10
D0
70
20
ENDCHAR

STARTCHAR SUPERSCRIPT LATIN SMALL LETTER N
ENCODING 8319
SWIDTH 720 0
DWIDTH 6 0
BBX 6 6 0 -1
BITMAP
70
68
68
68
00
00
ENDCHAR

STARTCHAR SUPERSCRIPT TWO
ENCODING 178
SWIDTH 720 0
DWIDTH 6 0
BBX 6 6 0 -1
BITMAP
70
18
30
78
00
00
ENDCHAR

STARTCHAR SUPERSCRIPT THREE
ENCODING 179
SWIDTH 720 0
DWIDTH 6 0
BBX 6 6 0 -1
BITMAP
70
30
10
70
00
00
ENDCHAR

STARTCHAR MACRON
ENCODING 175
SWIDTH 720 0
DWIDTH 6 0
BBX 6 6 0 -1
BITMAP
F8
00
00
00
00
00
ENDCHAR

ENDFONT
