STARTFONT 2.1
FONT 8x8 system font
SIZE 7 75 75
FONTBOUNDINGBOX 8 8 0 0
STARTPROPERTIES 25
FONTNAME_REGISTRY ""
FOUNDRY ""
FAMILY_NAME "Atari ST 8x8 system"
WEIGHT_NAME "Medium"
SLANT ""
SETWIDTH_NAME "Normal"
ADD_STYLE_NAME "Regular"
PIXEL_SIZE 7
POINT_SIZE 90
RESOLUTION_X 75
RESOLUTION_Y 75
SPACING "M"
AVERAGE_WIDTH 80
CHARSET_REGISTRY "ISO10646"
CHARSET_ENCODING "1"
COPYRIGHT "Public domain"
FACE_NAME "Atari ST 8x8 system"
X_HEIGHT 6
CAP_HEIGHT 7
WEIGHT 10
RESOLUTION 99
QUAD_WIDTH 8
DEFAULT_CHAR 0
FONT_DESCENT 2
FONT_ASCENT 8
ENDPROPERTIES

CHARS 256

STARTCHAR NULL
ENCODING 0
SWIDTH 853 0
DWIDTH 8 0
BBX 8 8 0 -2
BITMAP
00
00
00
00
00
00
00
00
ENDCHAR

STARTCHAR UPWARDS WHITE ARROW
ENCODING 8679
SWIDTH 853 0
DWIDTH 8 0
BBX 8 8 0 -2
BITMAP
18
3C
66
C3
E7
24
24
3C
ENDCHAR

STARTCHAR DOWNWARDS WHITE ARROW
ENCODING 8681
SWIDTH 853 0
DWIDTH 8 0
BBX 8 8 0 -2
BITMAP
3C
24
24
E7
C3
66
3C
18
ENDCHAR

STARTCHAR RIGHTWARDS WHITE ARROW
ENCODING 8680
SWIDTH 853 0
DWIDTH 8 0
BBX 8 8 0 -2
BITMAP
18
1C
F6
83
83
F6
1C
18
ENDCHAR

STARTCHAR LEFTWARDS WHITE ARROW
ENCODING 8678
SWIDTH 853 0
DWIDTH 8 0
BBX 8 8 0 -2
BITMAP
18
38
6F
C1
C1
6F
38
18
ENDCHAR

STARTCHAR NEGATIVE DIAGONAL CROSS
ENCODING 129981
SWIDTH 853 0
DWIDTH 8 0
BBX 8 8 0 -2
BITMAP
3C
99
C3
E7
C3
99
3C
00
ENDCHAR

STARTCHAR NEGATIVE DIAGONAL MIDDLE RIGHT TO LOWER CENTRE
ENCODING 129982
SWIDTH 853 0
DWIDTH 8 0
BBX 8 8 0 -2
BITMAP
FF
FF
FE
FC
F9
F3
E7
00
ENDCHAR

STARTCHAR NEGATIVE DIAGONAL DIAMOND
ENCODING 129983
SWIDTH 853 0
DWIDTH 8 0
BBX 8 8 0 -2
BITMAP
E7
C3
99
3C
99
C3
E7
00
ENDCHAR

STARTCHAR CHECK MARK
ENCODING 10003
SWIDTH 853 0
DWIDTH 8 0
BBX 8 8 0 -2
BITMAP
01
03
06
8C
D8
70
20
00
ENDCHAR

STARTCHAR CLOCK FACE THREE OCLOCK
ENCODING 128338
SWIDTH 853 0
DWIDTH 8 0
BBX 8 8 0 -2
BITMAP
7E
C3
D3
D3
DB
C3
C3
7E
ENDCHAR

STARTCHAR BELL
ENCODING 128276
SWIDTH 853 0
DWIDTH 8 0
BBX 8 8 0 -2
BITMAP
18
3C
3C
3C
7E
10
38
10
ENDCHAR

STARTCHAR EIGHTH NOTE
ENCODING 9834
SWIDTH 853 0
DWIDTH 8 0
BBX 8 8 0 -2
BITMAP
18
1C
16
10
10
70
F0
60
ENDCHAR

STARTCHAR SYMBOL FOR FORM FEED
ENCODING 9228
SWIDTH 853 0
DWIDTH 8 0
BBX 8 8 0 -2
BITMAP
F0
C0
FE
D8
DE
18
18
00
ENDCHAR

STARTCHAR SYMBOL FOR CARRIAGE RETURN
ENCODING 9229
SWIDTH 853 0
DWIDTH 8 0
BBX 8 8 0 -2
BITMAP
F0
C0
DF
DB
FF
1E
1B
00
ENDCHAR

STARTCHAR SHIFT OUT
ENCODING 14
SWIDTH 853 0
DWIDTH 8 0
BBX 8 8 0 -2
BITMAP
05
05
05
0D
0D
19
79
71
ENDCHAR

STARTCHAR SHIFT IN
ENCODING 15
SWIDTH 853 0
DWIDTH 8 0
BBX 8 8 0 -2
BITMAP
A0
A0
A0
B0
B0
98
9E
8E
ENDCHAR

STARTCHAR SEGMENTED DIGIT ZERO
ENCODING 130032
SWIDTH 853 0
DWIDTH 8 0
BBX 8 8 0 -2
BITMAP
7C
C6
C6
00
C6
C6
7C
00
ENDCHAR

STARTCHAR SEGMENTED DIGIT ONE
ENCODING 130033
SWIDTH 853 0
DWIDTH 8 0
BBX 8 8 0 -2
BITMAP
06
06
06
00
06
06
06
00
ENDCHAR

STARTCHAR SEGMENTED DIGIT TWO
ENCODING 130034
SWIDTH 853 0
DWIDTH 8 0
BBX 8 8 0 -2
BITMAP
7C
06
06
7C
C0
C0
7C
00
ENDCHAR

STARTCHAR SEGMENTED DIGIT THREE
ENCODING 130035
SWIDTH 853 0
DWIDTH 8 0
BBX 8 8 0 -2
BITMAP
7C
06
06
7C
06
06
7C
00
ENDCHAR

STARTCHAR SEGMENTED DIGIT FOUR
ENCODING 130036
SWIDTH 853 0
DWIDTH 8 0
BBX 8 8 0 -2
BITMAP
C6
C6
C6
7C
06
06
06
00
ENDCHAR

STARTCHAR SEGMENTED DIGIT FIVE
ENCODING 130037
SWIDTH 853 0
DWIDTH 8 0
BBX 8 8 0 -2
BITMAP
7C
C0
C0
7C
06
06
7C
00
ENDCHAR

STARTCHAR SEGMENTED DIGIT SIX
ENCODING 130038
SWIDTH 853 0
DWIDTH 8 0
BBX 8 8 0 -2
BITMAP
7C
C0
C0
7C
C6
C6
7C
00
ENDCHAR

STARTCHAR SEGMENTED DIGIT SEVEN
ENCODING 130039
SWIDTH 853 0
DWIDTH 8 0
BBX 8 8 0 -2
BITMAP
7C
06
06
00
06
06
06
00
ENDCHAR

STARTCHAR SEGMENTED DIGIT EIGHT
ENCODING 130040
SWIDTH 853 0
DWIDTH 8 0
BBX 8 8 0 -2
BITMAP
7C
C6
C6
7C
C6
C6
7C
00
ENDCHAR

STARTCHAR SEGMENTED DIGIT NINE
ENCODING 130041
SWIDTH 853 0
DWIDTH 8 0
BBX 8 8 0 -2
BITMAP
7C
C6
C6
7C
06
06
7C
00
ENDCHAR

STARTCHAR LATIN SMALL LETTER SCHWA
ENCODING 601
SWIDTH 853 0
DWIDTH 8 0
BBX 8 8 0 -2
BITMAP
00
00
3C
06
7E
66
3C
00
ENDCHAR

STARTCHAR SYMBOL FOR ESCAPE
ENCODING 9243
SWIDTH 853 0
DWIDTH 8 0
BBX 8 8 0 -2
BITMAP
78
60
78
60
7E
18
1E
00
ENDCHAR

STARTCHAR FILE SEPARATOR
ENCODING 28
SWIDTH 853 0
DWIDTH 8 0
BBX 8 8 0 -2
BITMAP
07
0F
1F
18
18
10
1E
17
ENDCHAR

STARTCHAR GROUP SEPARATOR
ENCODING 29
SWIDTH 853 0
DWIDTH 8 0
BBX 8 8 0 -2
BITMAP
F0
F8
EC
04
04
04
3C
54
ENDCHAR

STARTCHAR RECORD SEPARATOR
ENCODING 30
SWIDTH 853 0
DWIDTH 8 0
BBX 8 8 0 -2
BITMAP
11
0B
0D
06
07
2E
39
38
ENDCHAR

STARTCHAR UNIT SEPARATOR
ENCODING 31
SWIDTH 853 0
DWIDTH 8 0
BBX 8 8 0 -2
BITMAP
04
28
D8
28
D0
10
E0
00
ENDCHAR

STARTCHAR SPACE
ENCODING 32
SWIDTH 853 0
DWIDTH 8 0
BBX 8 8 0 -2
BITMAP
00
00
00
00
00
00
00
00
ENDCHAR

STARTCHAR EXCLAMATION MARK
ENCODING 33
SWIDTH 853 0
DWIDTH 8 0
BBX 8 8 0 -2
BITMAP
18
18
18
18
18
00
18
00
ENDCHAR

STARTCHAR QUOTATION MARK
ENCODING 34
SWIDTH 853 0
DWIDTH 8 0
BBX 8 8 0 -2
BITMAP
66
66
66
00
00
00
00
00
ENDCHAR

STARTCHAR NUMBER SIGN
ENCODING 35
SWIDTH 853 0
DWIDTH 8 0
BBX 8 8 0 -2
BITMAP
00
6C
FE
6C
6C
FE
6C
00
ENDCHAR

STARTCHAR DOLLAR SIGN
ENCODING 36
SWIDTH 853 0
DWIDTH 8 0
BBX 8 8 0 -2
BITMAP
18
3E
60
3C
06
7C
18
00
ENDCHAR

STARTCHAR PERCENT SIGN
ENCODING 37
SWIDTH 853 0
DWIDTH 8 0
BBX 8 8 0 -2
BITMAP
00
66
6C
18
30
66
46
00
ENDCHAR

STARTCHAR AMPERSAND
ENCODING 38
SWIDTH 853 0
DWIDTH 8 0
BBX 8 8 0 -2
BITMAP
38
6C
38
70
DE
CC
76
00
ENDCHAR

STARTCHAR APOSTROPHE
ENCODING 39
SWIDTH 853 0
DWIDTH 8 0
BBX 8 8 0 -2
BITMAP
18
18
18
00
00
00
00
00
ENDCHAR

STARTCHAR LEFT PARENTHESIS
ENCODING 40
SWIDTH 853 0
DWIDTH 8 0
BBX 8 8 0 -2
BITMAP
0E
1C
18
18
18
1C
0E
00
ENDCHAR

STARTCHAR RIGHT PARENTHESIS
ENCODING 41
SWIDTH 853 0
DWIDTH 8 0
BBX 8 8 0 -2
BITMAP
70
38
18
18
18
38
70
00
ENDCHAR

STARTCHAR ASTERISK
ENCODING 42
SWIDTH 853 0
DWIDTH 8 0
BBX 8 8 0 -2
BITMAP
00
66
3C
FF
3C
66
00
00
ENDCHAR

STARTCHAR PLUS SIGN
ENCODING 43
SWIDTH 853 0
DWIDTH 8 0
BBX 8 8 0 -2
BITMAP
00
18
18
7E
18
18
00
00
ENDCHAR

STARTCHAR COMMA
ENCODING 44
SWIDTH 853 0
DWIDTH 8 0
BBX 8 8 0 -2
BITMAP
00
00
00
00
00
30
30
60
ENDCHAR

STARTCHAR HYPHEN-MINUS
ENCODING 45
SWIDTH 853 0
DWIDTH 8 0
BBX 8 8 0 -2
BITMAP
00
00
00
7E
00
00
00
00
ENDCHAR

STARTCHAR FULL STOP
ENCODING 46
SWIDTH 853 0
DWIDTH 8 0
BBX 8 8 0 -2
BITMAP
00
00
00
00
00
18
18
00
ENDCHAR

STARTCHAR SOLIDUS
ENCODING 47
SWIDTH 853 0
DWIDTH 8 0
BBX 8 8 0 -2
BITMAP
02
06
0C
18
30
60
40
00
ENDCHAR

STARTCHAR DIGIT ZERO
ENCODING 48
SWIDTH 853 0
DWIDTH 8 0
BBX 8 8 0 -2
BITMAP
3C
66
6E
76
66
66
3C
00
ENDCHAR

STARTCHAR DIGIT ONE
ENCODING 49
SWIDTH 853 0
DWIDTH 8 0
BBX 8 8 0 -2
BITMAP
18
38
18
18
18
18
7E
00
ENDCHAR

STARTCHAR DIGIT TWO
ENCODING 50
SWIDTH 853 0
DWIDTH 8 0
BBX 8 8 0 -2
BITMAP
3C
66
06
0C
18
30
7E
00
ENDCHAR

STARTCHAR DIGIT THREE
ENCODING 51
SWIDTH 853 0
DWIDTH 8 0
BBX 8 8 0 -2
BITMAP
7E
0C
18
0C
06
66
3C
00
ENDCHAR

STARTCHAR DIGIT FOUR
ENCODING 52
SWIDTH 853 0
DWIDTH 8 0
BBX 8 8 0 -2
BITMAP
0C
1C
3C
6C
7E
0C
0C
00
ENDCHAR

STARTCHAR DIGIT FIVE
ENCODING 53
SWIDTH 853 0
DWIDTH 8 0
BBX 8 8 0 -2
BITMAP
7E
60
7C
06
06
66
3C
00
ENDCHAR

STARTCHAR DIGIT SIX
ENCODING 54
SWIDTH 853 0
DWIDTH 8 0
BBX 8 8 0 -2
BITMAP
3C
60
60
7C
66
66
3C
00
ENDCHAR

STARTCHAR DIGIT SEVEN
ENCODING 55
SWIDTH 853 0
DWIDTH 8 0
BBX 8 8 0 -2
BITMAP
7E
06
0C
18
30
30
30
00
ENDCHAR

STARTCHAR DIGIT EIGHT
ENCODING 56
SWIDTH 853 0
DWIDTH 8 0
BBX 8 8 0 -2
BITMAP
3C
66
66
3C
66
66
3C
00
ENDCHAR

STARTCHAR DIGIT NINE
ENCODING 57
SWIDTH 853 0
DWIDTH 8 0
BBX 8 8 0 -2
BITMAP
3C
66
66
3E
06
0C
38
00
ENDCHAR

STARTCHAR COLON
ENCODING 58
SWIDTH 853 0
DWIDTH 8 0
BBX 8 8 0 -2
BITMAP
00
18
18
00
18
18
00
00
ENDCHAR

STARTCHAR SEMICOLON
ENCODING 59
SWIDTH 853 0
DWIDTH 8 0
BBX 8 8 0 -2
BITMAP
00
18
18
00
18
18
30
00
ENDCHAR

STARTCHAR LESS-THAN SIGN
ENCODING 60
SWIDTH 853 0
DWIDTH 8 0
BBX 8 8 0 -2
BITMAP
06
0C
18
30
18
0C
06
00
ENDCHAR

STARTCHAR EQUALS SIGN
ENCODING 61
SWIDTH 853 0
DWIDTH 8 0
BBX 8 8 0 -2
BITMAP
00
00
7E
00
00
7E
00
00
ENDCHAR

STARTCHAR GREATER-THAN SIGN
ENCODING 62
SWIDTH 853 0
DWIDTH 8 0
BBX 8 8 0 -2
BITMAP
60
30
18
0C
18
30
60
00
ENDCHAR

STARTCHAR QUESTION MARK
ENCODING 63
SWIDTH 853 0
DWIDTH 8 0
BBX 8 8 0 -2
BITMAP
3C
66
06
0C
18
00
18
00
ENDCHAR

STARTCHAR COMMERCIAL AT
ENCODING 64
SWIDTH 853 0
DWIDTH 8 0
BBX 8 8 0 -2
BITMAP
3C
66
6E
6A
6E
60
3E
00
ENDCHAR

STARTCHAR LATIN CAPITAL LETTER A
ENCODING 65
SWIDTH 853 0
DWIDTH 8 0
BBX 8 8 0 -2
BITMAP
18
3C
66
66
7E
66
66
00
ENDCHAR

STARTCHAR LATIN CAPITAL LETTER B
ENCODING 66
SWIDTH 853 0
DWIDTH 8 0
BBX 8 8 0 -2
BITMAP
7C
66
66
7C
66
66
7C
00
ENDCHAR

STARTCHAR LATIN CAPITAL LETTER C
ENCODING 67
SWIDTH 853 0
DWIDTH 8 0
BBX 8 8 0 -2
BITMAP
3C
66
60
60
60
66
3C
00
ENDCHAR

STARTCHAR LATIN CAPITAL LETTER D
ENCODING 68
SWIDTH 853 0
DWIDTH 8 0
BBX 8 8 0 -2
BITMAP
78
6C
66
66
66
6C
78
00
ENDCHAR

STARTCHAR LATIN CAPITAL LETTER E
ENCODING 69
SWIDTH 853 0
DWIDTH 8 0
BBX 8 8 0 -2
BITMAP
7E
60
60
7C
60
60
7E
00
ENDCHAR

STARTCHAR LATIN CAPITAL LETTER F
ENCODING 70
SWIDTH 853 0
DWIDTH 8 0
BBX 8 8 0 -2
BITMAP
7E
60
60
7C
60
60
60
00
ENDCHAR

STARTCHAR LATIN CAPITAL LETTER G
ENCODING 71
SWIDTH 853 0
DWIDTH 8 0
BBX 8 8 0 -2
BITMAP
3E
60
60
6E
66
66
3E
00
ENDCHAR

STARTCHAR LATIN CAPITAL LETTER H
ENCODING 72
SWIDTH 853 0
DWIDTH 8 0
BBX 8 8 0 -2
BITMAP
66
66
66
7E
66
66
66
00
ENDCHAR

STARTCHAR LATIN CAPITAL LETTER I
ENCODING 73
SWIDTH 853 0
DWIDTH 8 0
BBX 8 8 0 -2
BITMAP
3C
18
18
18
18
18
3C
00
ENDCHAR

STARTCHAR LATIN CAPITAL LETTER J
ENCODING 74
SWIDTH 853 0
DWIDTH 8 0
BBX 8 8 0 -2
BITMAP
06
06
06
06
06
66
3C
00
ENDCHAR

STARTCHAR LATIN CAPITAL LETTER K
ENCODING 75
SWIDTH 853 0
DWIDTH 8 0
BBX 8 8 0 -2
BITMAP
66
6C
78
70
78
6C
66
00
ENDCHAR

STARTCHAR LATIN CAPITAL LETTER L
ENCODING 76
SWIDTH 853 0
DWIDTH 8 0
BBX 8 8 0 -2
BITMAP
60
60
60
60
60
60
7E
00
ENDCHAR

STARTCHAR LATIN CAPITAL LETTER M
ENCODING 77
SWIDTH 853 0
DWIDTH 8 0
BBX 8 8 0 -2
BITMAP
C6
EE
FE
D6
C6
C6
C6
00
ENDCHAR

STARTCHAR LATIN CAPITAL LETTER N
ENCODING 78
SWIDTH 853 0
DWIDTH 8 0
BBX 8 8 0 -2
BITMAP
66
76
7E
7E
6E
66
66
00
ENDCHAR

STARTCHAR LATIN CAPITAL LETTER O
ENCODING 79
SWIDTH 853 0
DWIDTH 8 0
BBX 8 8 0 -2
BITMAP
3C
66
66
66
66
66
3C
00
ENDCHAR

STARTCHAR LATIN CAPITAL LETTER P
ENCODING 80
SWIDTH 853 0
DWIDTH 8 0
BBX 8 8 0 -2
BITMAP
7C
66
66
7C
60
60
60
00
ENDCHAR

STARTCHAR LATIN CAPITAL LETTER Q
ENCODING 81
SWIDTH 853 0
DWIDTH 8 0
BBX 8 8 0 -2
BITMAP
3C
66
66
66
76
6C
36
00
ENDCHAR

STARTCHAR LATIN CAPITAL LETTER R
ENCODING 82
SWIDTH 853 0
DWIDTH 8 0
BBX 8 8 0 -2
BITMAP
7C
66
66
7C
6C
66
66
00
ENDCHAR

STARTCHAR LATIN CAPITAL LETTER S
ENCODING 83
SWIDTH 853 0
DWIDTH 8 0
BBX 8 8 0 -2
BITMAP
3C
66
60
3C
06
66
3C
00
ENDCHAR

STARTCHAR LATIN CAPITAL LETTER T
ENCODING 84
SWIDTH 853 0
DWIDTH 8 0
BBX 8 8 0 -2
BITMAP
7E
18
18
18
18
18
18
00
ENDCHAR

STARTCHAR LATIN CAPITAL LETTER U
ENCODING 85
SWIDTH 853 0
DWIDTH 8 0
BBX 8 8 0 -2
BITMAP
66
66
66
66
66
66
3E
00
ENDCHAR

STARTCHAR LATIN CAPITAL LETTER V
ENCODING 86
SWIDTH 853 0
DWIDTH 8 0
BBX 8 8 0 -2
BITMAP
66
66
66
66
66
3C
18
00
ENDCHAR

STARTCHAR LATIN CAPITAL LETTER W
ENCODING 87
SWIDTH 853 0
DWIDTH 8 0
BBX 8 8 0 -2
BITMAP
C6
C6
C6
D6
FE
EE
C6
00
ENDCHAR

STARTCHAR LATIN CAPITAL LETTER X
ENCODING 88
SWIDTH 853 0
DWIDTH 8 0
BBX 8 8 0 -2
BITMAP
66
66
3C
18
3C
66
66
00
ENDCHAR

STARTCHAR LATIN CAPITAL LETTER Y
ENCODING 89
SWIDTH 853 0
DWIDTH 8 0
BBX 8 8 0 -2
BITMAP
66
66
66
3C
18
18
18
00
ENDCHAR

STARTCHAR LATIN CAPITAL LETTER Z
ENCODING 90
SWIDTH 853 0
DWIDTH 8 0
BBX 8 8 0 -2
BITMAP
7E
06
0C
18
30
60
7E
00
ENDCHAR

STARTCHAR LEFT SQUARE BRACKET
ENCODING 91
SWIDTH 853 0
DWIDTH 8 0
BBX 8 8 0 -2
BITMAP
1E
18
18
18
18
18
1E
00
ENDCHAR

STARTCHAR REVERSE SOLIDUS
ENCODING 92
SWIDTH 853 0
DWIDTH 8 0
BBX 8 8 0 -2
BITMAP
40
60
30
18
0C
06
02
00
ENDCHAR

STARTCHAR RIGHT SQUARE BRACKET
ENCODING 93
SWIDTH 853 0
DWIDTH 8 0
BBX 8 8 0 -2
BITMAP
78
18
18
18
18
18
78
00
ENDCHAR

STARTCHAR CIRCUMFLEX ACCENT
ENCODING 94
SWIDTH 853 0
DWIDTH 8 0
BBX 8 8 0 -2
BITMAP
10
38
6C
C6
00
00
00
00
ENDCHAR

STARTCHAR LOW LINE
ENCODING 95
SWIDTH 853 0
DWIDTH 8 0
BBX 8 8 0 -2
BITMAP
00
00
00
00
00
00
FE
00
ENDCHAR

STARTCHAR GRAVE ACCENT
ENCODING 96
SWIDTH 853 0
DWIDTH 8 0
BBX 8 8 0 -2
BITMAP
00
C0
60
30
00
00
00
00
ENDCHAR

STARTCHAR LATIN SMALL LETTER A
ENCODING 97
SWIDTH 853 0
DWIDTH 8 0
BBX 8 8 0 -2
BITMAP
00
00
3C
06
3E
66
3E
00
ENDCHAR

STARTCHAR LATIN SMALL LETTER B
ENCODING 98
SWIDTH 853 0
DWIDTH 8 0
BBX 8 8 0 -2
BITMAP
60
60
7C
66
66
66
7C
00
ENDCHAR

STARTCHAR LATIN SMALL LETTER C
ENCODING 99
SWIDTH 853 0
DWIDTH 8 0
BBX 8 8 0 -2
BITMAP
00
00
3C
60
60
60
3C
00
ENDCHAR

STARTCHAR LATIN SMALL LETTER D
ENCODING 100
SWIDTH 853 0
DWIDTH 8 0
BBX 8 8 0 -2
BITMAP
06
06
3E
66
66
66
3E
00
ENDCHAR

STARTCHAR LATIN SMALL LETTER E
ENCODING 101
SWIDTH 853 0
DWIDTH 8 0
BBX 8 8 0 -2
BITMAP
00
00
3C
66
7E
60
3C
00
ENDCHAR

STARTCHAR LATIN SMALL LETTER F
ENCODING 102
SWIDTH 853 0
DWIDTH 8 0
BBX 8 8 0 -2
BITMAP
1C
30
7C
30
30
30
30
00
ENDCHAR

STARTCHAR LATIN SMALL LETTER G
ENCODING 103
SWIDTH 853 0
DWIDTH 8 0
BBX 8 8 0 -2
BITMAP
00
00
3E
66
66
3E
06
7C
ENDCHAR

STARTCHAR LATIN SMALL LETTER H
ENCODING 104
SWIDTH 853 0
DWIDTH 8 0
BBX 8 8 0 -2
BITMAP
60
60
7C
66
66
66
66
00
ENDCHAR

STARTCHAR LATIN SMALL LETTER I
ENCODING 105
SWIDTH 853 0
DWIDTH 8 0
BBX 8 8 0 -2
BITMAP
18
00
38
18
18
18
3C
00
ENDCHAR

STARTCHAR LATIN SMALL LETTER J
ENCODING 106
SWIDTH 853 0
DWIDTH 8 0
BBX 8 8 0 -2
BITMAP
18
00
18
18
18
18
18
70
ENDCHAR

STARTCHAR LATIN SMALL LETTER K
ENCODING 107
SWIDTH 853 0
DWIDTH 8 0
BBX 8 8 0 -2
BITMAP
60
60
66
6C
78
6C
66
00
ENDCHAR

STARTCHAR LATIN SMALL LETTER L
ENCODING 108
SWIDTH 853 0
DWIDTH 8 0
BBX 8 8 0 -2
BITMAP
38
18
18
18
18
18
3C
00
ENDCHAR

STARTCHAR LATIN SMALL LETTER M
ENCODING 109
SWIDTH 853 0
DWIDTH 8 0
BBX 8 8 0 -2
BITMAP
00
00
EC
FE
D6
C6
C6
00
ENDCHAR

STARTCHAR LATIN SMALL LETTER N
ENCODING 110
SWIDTH 853 0
DWIDTH 8 0
BBX 8 8 0 -2
BITMAP
00
00
7C
66
66
66
66
00
ENDCHAR

STARTCHAR LATIN SMALL LETTER O
ENCODING 111
SWIDTH 853 0
DWIDTH 8 0
BBX 8 8 0 -2
BITMAP
00
00
3C
66
66
66
3C
00
ENDCHAR

STARTCHAR LATIN SMALL LETTER P
ENCODING 112
SWIDTH 853 0
DWIDTH 8 0
BBX 8 8 0 -2
BITMAP
00
00
7C
66
66
66
7C
60
ENDCHAR

STARTCHAR LATIN SMALL LETTER Q
ENCODING 113
SWIDTH 853 0
DWIDTH 8 0
BBX 8 8 0 -2
BITMAP
00
00
3E
66
66
66
3E
06
ENDCHAR

STARTCHAR LATIN SMALL LETTER R
ENCODING 114
SWIDTH 853 0
DWIDTH 8 0
BBX 8 8 0 -2
BITMAP
00
00
7C
66
60
60
60
00
ENDCHAR

STARTCHAR LATIN SMALL LETTER S
ENCODING 115
SWIDTH 853 0
DWIDTH 8 0
BBX 8 8 0 -2
BITMAP
00
00
3E
60
3C
06
7C
00
ENDCHAR

STARTCHAR LATIN SMALL LETTER T
ENCODING 116
SWIDTH 853 0
DWIDTH 8 0
BBX 8 8 0 -2
BITMAP
00
18
7E
18
18
18
0E
00
ENDCHAR

STARTCHAR LATIN SMALL LETTER U
ENCODING 117
SWIDTH 853 0
DWIDTH 8 0
BBX 8 8 0 -2
BITMAP
00
00
66
66
66
66
3E
00
ENDCHAR

STARTCHAR LATIN SMALL LETTER V
ENCODING 118
SWIDTH 853 0
DWIDTH 8 0
BBX 8 8 0 -2
BITMAP
00
00
66
66
66
3C
18
00
ENDCHAR

STARTCHAR LATIN SMALL LETTER W
ENCODING 119
SWIDTH 853 0
DWIDTH 8 0
BBX 8 8 0 -2
BITMAP
00
00
C6
C6
D6
7C
6C
00
ENDCHAR

STARTCHAR LATIN SMALL LETTER X
ENCODING 120
SWIDTH 853 0
DWIDTH 8 0
BBX 8 8 0 -2
BITMAP
00
00
66
3C
18
3C
66
00
ENDCHAR

STARTCHAR LATIN SMALL LETTER Y
ENCODING 121
SWIDTH 853 0
DWIDTH 8 0
BBX 8 8 0 -2
BITMAP
00
00
66
66
66
3E
06
7C
ENDCHAR

STARTCHAR LATIN SMALL LETTER Z
ENCODING 122
SWIDTH 853 0
DWIDTH 8 0
BBX 8 8 0 -2
BITMAP
00
00
7E
0C
18
30
7E
00
ENDCHAR

STARTCHAR LEFT CURLY BRACKET
ENCODING 123
SWIDTH 853 0
DWIDTH 8 0
BBX 8 8 0 -2
BITMAP
0E
18
18
30
18
18
0E
00
ENDCHAR

STARTCHAR VERTICAL LINE
ENCODING 124
SWIDTH 853 0
DWIDTH 8 0
BBX 8 8 0 -2
BITMAP
18
18
18
18
18
18
18
18
ENDCHAR

STARTCHAR RIGHT CURLY BRACKET
ENCODING 125
SWIDTH 853 0
DWIDTH 8 0
BBX 8 8 0 -2
BITMAP
70
18
18
0C
18
18
70
00
ENDCHAR

STARTCHAR TILDE
ENCODING 126
SWIDTH 853 0
DWIDTH 8 0
BBX 8 8 0 -2
BITMAP
00
60
F2
9E
0C
00
00
00
ENDCHAR

STARTCHAR DELETE
ENCODING 127
SWIDTH 853 0
DWIDTH 8 0
BBX 8 8 0 -2
BITMAP
00
18
18
34
34
62
7E
00
ENDCHAR

STARTCHAR LATIN CAPITAL LETTER C WITH CEDILLA
ENCODING 199
SWIDTH 853 0
DWIDTH 8 0
BBX 8 8 0 -2
BITMAP
00
3C
66
60
66
3C
08
38
ENDCHAR

STARTCHAR LATIN SMALL LETTER U WITH DIAERESIS
ENCODING 252
SWIDTH 853 0
DWIDTH 8 0
BBX 8 8 0 -2
BITMAP
66
00
00
66
66
66
3E
00
ENDCHAR

STARTCHAR LATIN SMALL LETTER E WITH ACUTE
ENCODING 233
SWIDTH 853 0
DWIDTH 8 0
BBX 8 8 0 -2
BITMAP
0C
18
00
3C
7E
60
3C
00
ENDCHAR

STARTCHAR LATIN SMALL LETTER A WITH CIRCUMFLEX
ENCODING 226
SWIDTH 853 0
DWIDTH 8 0
BBX 8 8 0 -2
BITMAP
18
66
00
3C
06
7E
3E
00
ENDCHAR

STARTCHAR LATIN SMALL LETTER A WITH DIAERESIS
ENCODING 228
SWIDTH 853 0
DWIDTH 8 0
BBX 8 8 0 -2
BITMAP
66
00
3C
06
3E
66
3E
00
ENDCHAR

STARTCHAR LATIN SMALL LETTER A WITH GRAVE
ENCODING 224
SWIDTH 853 0
DWIDTH 8 0
BBX 8 8 0 -2
BITMAP
30
18
00
3C
06
7E
3E
00
ENDCHAR

STARTCHAR LATIN SMALL LETTER A WITH RING ABOVE
ENCODING 229
SWIDTH 853 0
DWIDTH 8 0
BBX 8 8 0 -2
BITMAP
18
18
00
3C
06
7E
3E
00
ENDCHAR

STARTCHAR LATIN SMALL LETTER C WITH CEDILLA
ENCODING 231
SWIDTH 853 0
DWIDTH 8 0
BBX 8 8 0 -2
BITMAP
00
00
3C
60
60
3C
08
18
ENDCHAR

STARTCHAR LATIN SMALL LETTER E WITH CIRCUMFLEX
ENCODING 234
SWIDTH 853 0
DWIDTH 8 0
BBX 8 8 0 -2
BITMAP
18
66
00
3C
7E
60
3C
00
ENDCHAR

STARTCHAR LATIN SMALL LETTER E WITH DIAERESIS
ENCODING 235
SWIDTH 853 0
DWIDTH 8 0
BBX 8 8 0 -2
BITMAP
66
00
3C
66
7E
60
3C
00
ENDCHAR

STARTCHAR LATIN SMALL LETTER E WITH GRAVE
ENCODING 232
SWIDTH 853 0
DWIDTH 8 0
BBX 8 8 0 -2
BITMAP
30
18
00
3C
7E
60
3C
00
ENDCHAR

STARTCHAR LATIN SMALL LETTER I WITH DIAERESIS
ENCODING 239
SWIDTH 853 0
DWIDTH 8 0
BBX 8 8 0 -2
BITMAP
66
00
00
38
18
18
3C
00
ENDCHAR

STARTCHAR LATIN SMALL LETTER I WITH CIRCUMFLEX
ENCODING 238
SWIDTH 853 0
DWIDTH 8 0
BBX 8 8 0 -2
BITMAP
18
66
00
38
18
18
3C
00
ENDCHAR

STARTCHAR LATIN SMALL LETTER I WITH GRAVE
ENCODING 236
SWIDTH 853 0
DWIDTH 8 0
BBX 8 8 0 -2
BITMAP
60
30
00
38
18
18
3C
00
ENDCHAR

STARTCHAR LATIN CAPITAL LETTER A WITH DIAERESIS
ENCODING 196
SWIDTH 853 0
DWIDTH 8 0
BBX 8 8 0 -2
BITMAP
66
00
18
3C
66
7E
66
00
ENDCHAR

STARTCHAR LATIN CAPITAL LETTER A WITH RING ABOVE
ENCODING 197
SWIDTH 853 0
DWIDTH 8 0
BBX 8 8 0 -2
BITMAP
18
00
18
3C
66
7E
66
00
ENDCHAR

STARTCHAR LATIN CAPITAL LETTER E WITH ACUTE
ENCODING 201
SWIDTH 853 0
DWIDTH 8 0
BBX 8 8 0 -2
BITMAP
0C
18
7E
60
7C
60
7E
00
ENDCHAR

STARTCHAR LATIN SMALL LETTER AE
ENCODING 230
SWIDTH 853 0
DWIDTH 8 0
BBX 8 8 0 -2
BITMAP
00
00
7E
1B
7F
D8
7E
00
ENDCHAR

STARTCHAR LATIN CAPITAL LETTER AE
ENCODING 198
SWIDTH 853 0
DWIDTH 8 0
BBX 8 8 0 -2
BITMAP
3F
78
D8
DE
F8
D8
DF
00
ENDCHAR

STARTCHAR LATIN SMALL LETTER O WITH CIRCUMFLEX
ENCODING 244
SWIDTH 853 0
DWIDTH 8 0
BBX 8 8 0 -2
BITMAP
18
66
00
3C
66
66
3C
00
ENDCHAR

STARTCHAR LATIN SMALL LETTER O WITH DIAERESIS
ENCODING 246
SWIDTH 853 0
DWIDTH 8 0
BBX 8 8 0 -2
BITMAP
66
00
00
3C
66
66
3C
00
ENDCHAR

STARTCHAR LATIN SMALL LETTER O WITH GRAVE
ENCODING 242
SWIDTH 853 0
DWIDTH 8 0
BBX 8 8 0 -2
BITMAP
30
18
00
3C
66
66
3C
00
ENDCHAR

STARTCHAR LATIN SMALL LETTER U WITH CIRCUMFLEX
ENCODING 251
SWIDTH 853 0
DWIDTH 8 0
BBX 8 8 0 -2
BITMAP
18
66
00
66
66
66
3E
00
ENDCHAR

STARTCHAR LATIN SMALL LETTER U WITH GRAVE
ENCODING 249
SWIDTH 853 0
DWIDTH 8 0
BBX 8 8 0 -2
BITMAP
30
18
00
66
66
66
3E
00
ENDCHAR

STARTCHAR LATIN SMALL LETTER Y WITH DIAERESIS
ENCODING 255
SWIDTH 853 0
DWIDTH 8 0
BBX 8 8 0 -2
BITMAP
66
00
66
66
66
3E
06
7C
ENDCHAR

STARTCHAR LATIN CAPITAL LETTER O WITH DIAERESIS
ENCODING 214
SWIDTH 853 0
DWIDTH 8 0
BBX 8 8 0 -2
BITMAP
66
00
3C
66
66
66
3C
00
ENDCHAR

STARTCHAR LATIN CAPITAL LETTER U WITH DIAERESIS
ENCODING 220
SWIDTH 853 0
DWIDTH 8 0
BBX 8 8 0 -2
BITMAP
66
00
66
66
66
66
3E
00
ENDCHAR

STARTCHAR CENT SIGN
ENCODING 162
SWIDTH 853 0
DWIDTH 8 0
BBX 8 8 0 -2
BITMAP
18
18
3C
60
60
3C
18
18
ENDCHAR

STARTCHAR POUND SIGN
ENCODING 163
SWIDTH 853 0
DWIDTH 8 0
BBX 8 8 0 -2
BITMAP
1C
3A
30
7C
30
30
7E
00
ENDCHAR

STARTCHAR YEN SIGN
ENCODING 165
SWIDTH 853 0
DWIDTH 8 0
BBX 8 8 0 -2
BITMAP
66
66
3C
18
3C
18
18
00
ENDCHAR

STARTCHAR LATIN SMALL LETTER SHARP S
ENCODING 223
SWIDTH 853 0
DWIDTH 8 0
BBX 8 8 0 -2
BITMAP
1C
36
66
7C
66
66
7C
60
ENDCHAR

STARTCHAR LATIN SMALL LETTER F WITH HOOK
ENCODING 402
SWIDTH 853 0
DWIDTH 8 0
BBX 8 8 0 -2
BITMAP
1E
30
7C
30
30
30
60
00
ENDCHAR

STARTCHAR LATIN SMALL LETTER A WITH ACUTE
ENCODING 225
SWIDTH 853 0
DWIDTH 8 0
BBX 8 8 0 -2
BITMAP
0C
18
00
3C
06
7E
3E
00
ENDCHAR

STARTCHAR LATIN SMALL LETTER I WITH ACUTE
ENCODING 237
SWIDTH 853 0
DWIDTH 8 0
BBX 8 8 0 -2
BITMAP
0C
18
00
38
18
18
3C
00
ENDCHAR

STARTCHAR LATIN SMALL LETTER O WITH ACUTE
ENCODING 243
SWIDTH 853 0
DWIDTH 8 0
BBX 8 8 0 -2
BITMAP
0C
18
00
3C
66
66
3C
00
ENDCHAR

STARTCHAR LATIN SMALL LETTER U WITH ACUTE
ENCODING 250
SWIDTH 853 0
DWIDTH 8 0
BBX 8 8 0 -2
BITMAP
0C
18
00
66
66
66
3E
00
ENDCHAR

STARTCHAR LATIN SMALL LETTER N WITH TILDE
ENCODING 241
SWIDTH 853 0
DWIDTH 8 0
BBX 8 8 0 -2
BITMAP
34
58
00
7C
66
66
66
00
ENDCHAR

STARTCHAR LATIN CAPITAL LETTER N WITH TILDE
ENCODING 209
SWIDTH 853 0
DWIDTH 8 0
BBX 8 8 0 -2
BITMAP
34
58
00
66
76
6E
66
00
ENDCHAR

STARTCHAR FEMININE ORDINAL INDICATOR
ENCODING 170
SWIDTH 853 0
DWIDTH 8 0
BBX 8 8 0 -2
BITMAP
00
3C
06
3E
66
3E
00
3C
ENDCHAR

STARTCHAR MASCULINE ORDINAL INDICATOR
ENCODING 186
SWIDTH 853 0
DWIDTH 8 0
BBX 8 8 0 -2
BITMAP
00
3C
66
66
66
3C
00
3C
ENDCHAR

STARTCHAR INVERTED QUESTION MARK
ENCODING 191
SWIDTH 853 0
DWIDTH 8 0
BBX 8 8 0 -2
BITMAP
00
18
00
18
30
60
66
3C
ENDCHAR

STARTCHAR REVERSED NOT SIGN
ENCODING 8976
SWIDTH 853 0
DWIDTH 8 0
BBX 8 8 0 -2
BITMAP
00
00
00
3E
30
30
30
00
ENDCHAR

STARTCHAR NOT SIGN
ENCODING 172
SWIDTH 853 0
DWIDTH 8 0
BBX 8 8 0 -2
BITMAP
00
00
00
7C
0C
0C
0C
00
ENDCHAR

STARTCHAR VULGAR FRACTION ONE HALF
ENCODING 189
SWIDTH 853 0
DWIDTH 8 0
BBX 8 8 0 -2
BITMAP
C6
CC
D8
36
6B
C3
86
0F
ENDCHAR

STARTCHAR VULGAR FRACTION ONE QUARTER
ENCODING 188
SWIDTH 853 0
DWIDTH 8 0
BBX 8 8 0 -2
BITMAP
C6
CC
D8
36
6E
D6
9F
06
ENDCHAR

STARTCHAR INVERTED EXCLAMATION MARK
ENCODING 161
SWIDTH 853 0
DWIDTH 8 0
BBX 8 8 0 -2
BITMAP
00
18
00
18
18
18
18
18
ENDCHAR

STARTCHAR LEFT-POINTING DOUBLE ANGLE QUOTATION MARK
ENCODING 171
SWIDTH 853 0
DWIDTH 8 0
BBX 8 8 0 -2
BITMAP
1B
36
6C
D8
6C
36
1B
00
ENDCHAR

STARTCHAR RIGHT-POINTING DOUBLE ANGLE QUOTATION MARK
ENCODING 187
SWIDTH 853 0
DWIDTH 8 0
BBX 8 8 0 -2
BITMAP
D8
6C
36
1B
36
6C
D8
00
ENDCHAR

STARTCHAR LATIN SMALL LETTER A WITH TILDE
ENCODING 227
SWIDTH 853 0
DWIDTH 8 0
BBX 8 8 0 -2
BITMAP
34
58
00
3C
06
7E
3E
00
ENDCHAR

STARTCHAR LATIN SMALL LETTER O WITH TILDE
ENCODING 245
SWIDTH 853 0
DWIDTH 8 0
BBX 8 8 0 -2
BITMAP
34
58
00
3C
66
66
3C
00
ENDCHAR

STARTCHAR LATIN CAPITAL LETTER O WITH STROKE
ENCODING 216
SWIDTH 853 0
DWIDTH 8 0
BBX 8 8 0 -2
BITMAP
02
3C
66
6E
76
66
3C
40
ENDCHAR

STARTCHAR LATIN SMALL LETTER O WITH STROKE
ENCODING 248
SWIDTH 853 0
DWIDTH 8 0
BBX 8 8 0 -2
BITMAP
00
02
3C
6E
76
66
3C
40
ENDCHAR

STARTCHAR LATIN SMALL LIGATURE OE
ENCODING 339
SWIDTH 853 0
DWIDTH 8 0
BBX 8 8 0 -2
BITMAP
00
00
7E
DB
DF
D8
7E
00
ENDCHAR

STARTCHAR LATIN CAPITAL LIGATURE OE
ENCODING 338
SWIDTH 853 0
DWIDTH 8 0
BBX 8 8 0 -2
BITMAP
7F
D8
D8
DE
D8
D8
7F
00
ENDCHAR

STARTCHAR LATIN CAPITAL LETTER A WITH GRAVE
ENCODING 192
SWIDTH 853 0
DWIDTH 8 0
BBX 8 8 0 -2
BITMAP
30
18
00
18
3C
66
7E
66
ENDCHAR

STARTCHAR LATIN CAPITAL LETTER A WITH TILDE
ENCODING 195
SWIDTH 853 0
DWIDTH 8 0
BBX 8 8 0 -2
BITMAP
34
58
00
18
3C
66
7E
66
ENDCHAR

STARTCHAR LATIN CAPITAL LETTER O WITH TILDE
ENCODING 213
SWIDTH 853 0
DWIDTH 8 0
BBX 8 8 0 -2
BITMAP
34
58
3C
66
66
66
66
3C
ENDCHAR

STARTCHAR DIAERESIS
ENCODING 168
SWIDTH 853 0
DWIDTH 8 0
BBX 8 8 0 -2
BITMAP
66
00
00
00
00
00
00
00
ENDCHAR

STARTCHAR ACUTE ACCENT
ENCODING 180
SWIDTH 853 0
DWIDTH 8 0
BBX 8 8 0 -2
BITMAP
0C
18
30
00
00
00
00
00
ENDCHAR

STARTCHAR DAGGER
ENCODING 8224
SWIDTH 853 0
DWIDTH 8 0
BBX 8 8 0 -2
BITMAP
00
10
38
10
10
10
00
00
ENDCHAR

STARTCHAR PILCROW SIGN
ENCODING 182
SWIDTH 853 0
DWIDTH 8 0
BBX 8 8 0 -2
BITMAP
7A
CA
CA
CA
7A
0A
0A
0A
ENDCHAR

STARTCHAR COPYRIGHT SIGN
ENCODING 169
SWIDTH 853 0
DWIDTH 8 0
BBX 8 8 0 -2
BITMAP
7E
C3
BD
B1
B1
BD
C3
7E
ENDCHAR

STARTCHAR REGISTERED SIGN
ENCODING 174
SWIDTH 853 0
DWIDTH 8 0
BBX 8 8 0 -2
BITMAP
7E
C3
BD
A5
B9
AD
C3
7E
ENDCHAR

STARTCHAR TRADE MARK SIGN
ENCODING 8482
SWIDTH 853 0
DWIDTH 8 0
BBX 8 8 0 -2
BITMAP
F1
5B
5F
55
51
00
00
00
ENDCHAR

STARTCHAR LATIN SMALL LIGATURE IJ
ENCODING 307
SWIDTH 853 0
DWIDTH 8 0
BBX 8 8 0 -2
BITMAP
66
00
E6
66
66
F6
06
1C
ENDCHAR

STARTCHAR LATIN CAPITAL LIGATURE IJ
ENCODING 306
SWIDTH 853 0
DWIDTH 8 0
BBX 8 8 0 -2
BITMAP
F6
66
66
66
66
F6
06
1C
ENDCHAR

STARTCHAR HEBREW LETTER ALEF
ENCODING 1488
SWIDTH 853 0
DWIDTH 8 0
BBX 8 8 0 -2
BITMAP
00
66
76
3C
6E
66
00
00
ENDCHAR

STARTCHAR HEBREW LETTER BET
ENCODING 1489
SWIDTH 853 0
DWIDTH 8 0
BBX 8 8 0 -2
BITMAP
00
7C
0C
0C
0C
7E
00
00
ENDCHAR

STARTCHAR HEBREW LETTER GIMEL
ENCODING 1490
SWIDTH 853 0
DWIDTH 8 0
BBX 8 8 0 -2
BITMAP
00
1E
06
0E
1E
36
00
00
ENDCHAR

STARTCHAR HEBREW LETTER DALET
ENCODING 1491
SWIDTH 853 0
DWIDTH 8 0
BBX 8 8 0 -2
BITMAP
00
7E
0C
0C
0C
0C
00
00
ENDCHAR

STARTCHAR HEBREW LETTER HE
ENCODING 1492
SWIDTH 853 0
DWIDTH 8 0
BBX 8 8 0 -2
BITMAP
00
7C
06
66
66
66
00
00
ENDCHAR

STARTCHAR HEBREW LETTER VAV
ENCODING 1493
SWIDTH 853 0
DWIDTH 8 0
BBX 8 8 0 -2
BITMAP
00
1C
0C
0C
0C
0C
00
00
ENDCHAR

STARTCHAR HEBREW LETTER ZAYIN
ENCODING 1494
SWIDTH 853 0
DWIDTH 8 0
BBX 8 8 0 -2
BITMAP
00
1E
0C
06
06
06
00
00
ENDCHAR

STARTCHAR HEBREW LETTER HET
ENCODING 1495
SWIDTH 853 0
DWIDTH 8 0
BBX 8 8 0 -2
BITMAP
00
7E
36
36
36
36
00
00
ENDCHAR

STARTCHAR HEBREW LETTER TET
ENCODING 1496
SWIDTH 853 0
DWIDTH 8 0
BBX 8 8 0 -2
BITMAP
60
6E
66
66
66
7E
00
00
ENDCHAR

STARTCHAR HEBREW LETTER YOD
ENCODING 1497
SWIDTH 853 0
DWIDTH 8 0
BBX 8 8 0 -2
BITMAP
00
3C
0C
0C
00
00
00
00
ENDCHAR

STARTCHAR HEBREW LETTER KAF
ENCODING 1499
SWIDTH 853 0
DWIDTH 8 0
BBX 8 8 0 -2
BITMAP
00
3E
06
06
06
3E
00
00
ENDCHAR

STARTCHAR HEBREW LETTER LAMED
ENCODING 1500
SWIDTH 853 0
DWIDTH 8 0
BBX 8 8 0 -2
BITMAP
60
7E
06
06
06
0E
00
00
ENDCHAR

STARTCHAR HEBREW LETTER MEM
ENCODING 1502
SWIDTH 853 0
DWIDTH 8 0
BBX 8 8 0 -2
BITMAP
00
6C
3E
66
66
6E
00
00
ENDCHAR

STARTCHAR HEBREW LETTER NUN
ENCODING 1504
SWIDTH 853 0
DWIDTH 8 0
BBX 8 8 0 -2
BITMAP
00
1C
0C
0C
0C
3C
00
00
ENDCHAR

STARTCHAR HEBREW LETTER SAMEKH
ENCODING 1505
SWIDTH 853 0
DWIDTH 8 0
BBX 8 8 0 -2
BITMAP
00
3E
36
36
36
1C
00
00
ENDCHAR

STARTCHAR HEBREW LETTER AYIN
ENCODING 1506
SWIDTH 853 0
DWIDTH 8 0
BBX 8 8 0 -2
BITMAP
00
36
36
36
36
7E
00
00
ENDCHAR

STARTCHAR HEBREW LETTER PE
ENCODING 1508
SWIDTH 853 0
DWIDTH 8 0
BBX 8 8 0 -2
BITMAP
00
7E
66
76
06
7E
00
00
ENDCHAR

STARTCHAR HEBREW LETTER TSADI
ENCODING 1510
SWIDTH 853 0
DWIDTH 8 0
BBX 8 8 0 -2
BITMAP
00
66
66
3C
0E
7E
00
00
ENDCHAR

STARTCHAR HEBREW LETTER QOF
ENCODING 1511
SWIDTH 853 0
DWIDTH 8 0
BBX 8 8 0 -2
BITMAP
00
3E
06
36
36
34
30
00
ENDCHAR

STARTCHAR HEBREW LETTER RESH
ENCODING 1512
SWIDTH 853 0
DWIDTH 8 0
BBX 8 8 0 -2
BITMAP
00
78
0C
0C
0C
0C
00
00
ENDCHAR

STARTCHAR HEBREW LETTER SHIN
ENCODING 1513
SWIDTH 853 0
DWIDTH 8 0
BBX 8 8 0 -2
BITMAP
00
D6
D6
D6
D6
FE
00
00
ENDCHAR

STARTCHAR HEBREW LETTER TAV
ENCODING 1514
SWIDTH 853 0
DWIDTH 8 0
BBX 8 8 0 -2
BITMAP
00
7C
6C
6C
6C
EC
00
00
ENDCHAR

STARTCHAR HEBREW LETTER FINAL NUN
ENCODING 1503
SWIDTH 853 0
DWIDTH 8 0
BBX 8 8 0 -2
BITMAP
00
1C
0C
0C
0C
0C
0C
00
ENDCHAR

STARTCHAR HEBREW LETTER FINAL KAF
ENCODING 1498
SWIDTH 853 0
DWIDTH 8 0
BBX 8 8 0 -2
BITMAP
00
3E
06
06
06
06
06
00
ENDCHAR

STARTCHAR HEBREW LETTER FINAL MEM
ENCODING 1501
SWIDTH 853 0
DWIDTH 8 0
BBX 8 8 0 -2
BITMAP
00
FE
66
66
66
7E
00
00
ENDCHAR

STARTCHAR HEBREW LETTER FINAL PE
ENCODING 1507
SWIDTH 853 0
DWIDTH 8 0
BBX 8 8 0 -2
BITMAP
00
7E
66
76
06
06
06
00
ENDCHAR

STARTCHAR HEBREW LETTER FINAL TSADI
ENCODING 1509
SWIDTH 853 0
DWIDTH 8 0
BBX 8 8 0 -2
BITMAP
00
36
36
1C
0C
0C
0C
00
ENDCHAR

STARTCHAR SECTION SIGN
ENCODING 167
SWIDTH 853 0
DWIDTH 8 0
BBX 8 8 0 -2
BITMAP
0E
1B
3C
66
66
3C
D8
70
ENDCHAR

STARTCHAR LOGICAL AND
ENCODING 8743
SWIDTH 853 0
DWIDTH 8 0
BBX 8 8 0 -2
BITMAP
00
10
38
6C
C6
82
00
00
ENDCHAR

STARTCHAR INFINITY
ENCODING 8734
SWIDTH 853 0
DWIDTH 8 0
BBX 8 8 0 -2
BITMAP
66
F7
99
99
EF
66
00
00
ENDCHAR

STARTCHAR GREEK SMALL LETTER ALPHA
ENCODING 945
SWIDTH 853 0
DWIDTH 8 0
BBX 8 8 0 -2
BITMAP
00
00
76
DC
C8
DC
76
00
ENDCHAR

STARTCHAR GREEK SMALL LETTER BETA
ENCODING 946
SWIDTH 853 0
DWIDTH 8 0
BBX 8 8 0 -2
BITMAP
1C
36
66
7C
66
66
7C
60
ENDCHAR

STARTCHAR GREEK CAPITAL LETTER GAMMA
ENCODING 915
SWIDTH 853 0
DWIDTH 8 0
BBX 8 8 0 -2
BITMAP
00
FE
66
62
60
60
60
F8
ENDCHAR

STARTCHAR GREEK SMALL LETTER PI
ENCODING 960
SWIDTH 853 0
DWIDTH 8 0
BBX 8 8 0 -2
BITMAP
00
00
FE
6C
6C
6C
6C
48
ENDCHAR

STARTCHAR GREEK CAPITAL LETTER SIGMA
ENCODING 931
SWIDTH 853 0
DWIDTH 8 0
BBX 8 8 0 -2
BITMAP
FE
66
30
18
30
66
FE
00
ENDCHAR

STARTCHAR GREEK SMALL LETTER SIGMA
ENCODING 963
SWIDTH 853 0
DWIDTH 8 0
BBX 8 8 0 -2
BITMAP
00
1E
38
6C
6C
6C
38
00
ENDCHAR

STARTCHAR MICRO SIGN
ENCODING 181
SWIDTH 853 0
DWIDTH 8 0
BBX 8 8 0 -2
BITMAP
00
00
6C
6C
6C
6C
7F
C0
ENDCHAR

STARTCHAR GREEK SMALL LETTER TAU
ENCODING 964
SWIDTH 853 0
DWIDTH 8 0
BBX 8 8 0 -2
BITMAP
00
00
7E
18
18
18
18
10
ENDCHAR

STARTCHAR GREEK CAPITAL LETTER PHI
ENCODING 934
SWIDTH 853 0
DWIDTH 8 0
BBX 8 8 0 -2
BITMAP
3C
18
3C
66
66
3C
18
3C
ENDCHAR

STARTCHAR GREEK CAPITAL LETTER THETA
ENCODING 920
SWIDTH 853 0
DWIDTH 8 0
BBX 8 8 0 -2
BITMAP
00
3C
66
7E
66
66
3C
00
ENDCHAR

STARTCHAR GREEK CAPITAL LETTER OMEGA
ENCODING 937
SWIDTH 853 0
DWIDTH 8 0
BBX 8 8 0 -2
BITMAP
00
3C
66
66
66
24
66
00
ENDCHAR

STARTCHAR GREEK SMALL LETTER DELTA
ENCODING 948
SWIDTH 853 0
DWIDTH 8 0
BBX 8 8 0 -2
BITMAP
1C
36
78
DC
CC
EC
78
00
ENDCHAR

STARTCHAR CONTOUR INTEGRAL
ENCODING 8750
SWIDTH 853 0
DWIDTH 8 0
BBX 8 8 0 -2
BITMAP
0C
18
38
54
54
38
30
60
ENDCHAR

STARTCHAR GREEK SMALL LETTER PHI
ENCODING 966
SWIDTH 853 0
DWIDTH 8 0
BBX 8 8 0 -2
BITMAP
00
10
7C
D6
D6
D6
7C
10
ENDCHAR

STARTCHAR ELEMENT OF
ENCODING 8712
SWIDTH 853 0
DWIDTH 8 0
BBX 8 8 0 -2
BITMAP
3E
70
60
7E
60
70
3E
00
ENDCHAR

STARTCHAR INTERSECTION
ENCODING 8745
SWIDTH 853 0
DWIDTH 8 0
BBX 8 8 0 -2
BITMAP
3C
66
66
66
66
66
66
00
ENDCHAR

STARTCHAR IDENTICAL TO
ENCODING 8801
SWIDTH 853 0
DWIDTH 8 0
BBX 8 8 0 -2
BITMAP
00
7E
00
7E
00
7E
00
00
ENDCHAR

STARTCHAR PLUS-MINUS SIGN
ENCODING 177
SWIDTH 853 0
DWIDTH 8 0
BBX 8 8 0 -2
BITMAP
18
18
7E
18
18
00
7E
00
ENDCHAR

STARTCHAR GREATER-THAN OR EQUAL TO
ENCODING 8805
SWIDTH 853 0
DWIDTH 8 0
BBX 8 8 0 -2
BITMAP
30
18
0C
18
30
00
7E
00
ENDCHAR

STARTCHAR LESS-THAN OR EQUAL TO
ENCODING 8804
SWIDTH 853 0
DWIDTH 8 0
BBX 8 8 0 -2
BITMAP
0C
18
30
18
0C
00
7E
00
ENDCHAR

STARTCHAR TOP HALF INTEGRAL
ENCODING 8992
SWIDTH 853 0
DWIDTH 8 0
BBX 8 8 0 -2
BITMAP
00
0E
1B
1B
18
18
18
18
ENDCHAR

STARTCHAR BOTTOM HALF INTEGRAL
ENCODING 8993
SWIDTH 853 0
DWIDTH 8 0
BBX 8 8 0 -2
BITMAP
18
18
18
18
D8
D8
70
00
ENDCHAR

STARTCHAR DIVISION SIGN
ENCODING 247
SWIDTH 853 0
DWIDTH 8 0
BBX 8 8 0 -2
BITMAP
18
18
00
7E
00
18
18
00
ENDCHAR

STARTCHAR ALMOST EQUAL TO
ENCODING 8776
SWIDTH 853 0
DWIDTH 8 0
BBX 8 8 0 -2
BITMAP
00
32
4C
00
32
4C
00
00
ENDCHAR

STARTCHAR DEGREE SIGN
ENCODING 176
SWIDTH 853 0
DWIDTH 8 0
BBX 8 8 0 -2
BITMAP
38
6C
38
00
00
00
00
00
ENDCHAR

STARTCHAR BULLET OPERATOR
ENCODING 8729
SWIDTH 853 0
DWIDTH 8 0
BBX 8 8 0 -2
BITMAP
38
7C
38
00
00
00
00
00
ENDCHAR

STARTCHAR MIDDLE DOT
ENCODING 183
SWIDTH 853 0
DWIDTH 8 0
BBX 8 8 0 -2
BITMAP
00
00
00
00
18
18
00
00
ENDCHAR

STARTCHAR SQUARE ROOT
ENCODING 8730
SWIDTH 853 0
DWIDTH 8 0
BBX 8 8 0 -2
BITMAP
00
00
0F
18
D8
70
30
00
ENDCHAR

STARTCHAR SUPERSCRIPT LATIN SMALL LETTER N
ENCODING 8319
SWIDTH 853 0
DWIDTH 8 0
BBX 8 8 0 -2
BITMAP
38
6C
6C
6C
6C
00
00
00
ENDCHAR

STARTCHAR SUPERSCRIPT TWO
ENCODING 178
SWIDTH 853 0
DWIDTH 8 0
BBX 8 8 0 -2
BITMAP
38
6C
18
30
7C
00
00
00
ENDCHAR

STARTCHAR SUPERSCRIPT THREE
ENCODING 179
SWIDTH 853 0
DWIDTH 8 0
BBX 8 8 0 -2
BITMAP
78
0C
38
0C
78
00
00
00
ENDCHAR

STARTCHAR MACRON
ENCODING 175
SWIDTH 853 0
DWIDTH 8 0
BBX 8 8 0 -2
BITMAP
00
FE
00
00
00
00
00
00
ENDCHAR

ENDFONT
